<?xml version="1.0" encoding="utf-8"?>
<!-- Generator: Adobe Illustrator 25.0.0, SVG Export Plug-In . SVG Version: 6.00 Build 0)  -->
<svg version="1.1" id="_x2018_лой_x5F_1" xmlns="http://www.w3.org/2000/svg" xmlns:xlink="http://www.w3.org/1999/xlink"
	 x="0px" y="0px" viewBox="0 0 3200 2000" style="enable-background:new 0 0 3200 2000;" xml:space="preserve">
<style type="text/css">
	.st0{fill:#EBF3FA;}
	.st1{opacity:0.4;}
	.st2{fill:#C3DAFC;}
	.st3{fill:#D4E4F8;}
	.st4{fill:#9DC3F3;}
	.st5{fill:#E3F0FF;}
	.st6{fill:#FFFFFF;}
	.st7{fill:#A9C8ED;}
	.st8{fill:#2A4E96;}
	.st9{fill:#618DC1;}
	.st10{fill:#2B478B;}
	.st11{fill:#026C7E;}
	.st12{fill:#028697;}
	.st13{fill:#AEC3FF;}
	.st14{fill:#DDE7FE;}
	.st15{fill:#98B5F4;}
	.st16{fill:#FF9E55;}
	.st17{fill:#D2E0FF;}
	.st18{fill:#C5D7FF;}
	.st19{fill:#C0D8FB;}
	.st20{fill:#DFEBFD;}
	.st21{fill:#B7D3F3;}
	.st22{fill:#C15E1B;}
	.st23{fill:#FFC299;}
	.st24{fill:#FFB27D;}
	.st25{fill:#ED975D;}
	.st26{fill:#2C3A64;}
	.st27{fill:#1B407A;}
	.st28{opacity:0.5;}
	.st29{fill:#8DB0FF;}
	.st30{fill:#233862;}
	.st31{fill:#192E4F;}
	.st32{fill:#C1D4F7;}
	.st33{fill:#699DEE;}
	.st34{fill:#E9F3FE;}
	.st35{fill:#F1A34F;}
	.st36{opacity:0.4;fill:#D86713;enable-background:new    ;}
	.st37{fill:#8AA8ED;}
	.st38{fill:#F9DDBF;}
	.st39{fill:#163560;}
	.st40{fill:#0E2C4F;}
	.st41{fill:#EAA16E;}
	.st42{fill:#77A4E5;}
	.st43{fill:#7F9EF4;}
	.st44{fill:#5D86E2;}
	.st45{fill:#FCA56B;}
	.st46{fill:#2E3552;}
</style>
<g>
	<path class="st0" d="M3014.8,1592c-0.4,1.2-0.8,2.4-1.2,3.7c-3.6,10.4-7.4,20.9-11.7,31.7c-0.6,1.5-1.2,3-1.8,4.5
		c-5.2,12.8-10.9,25.7-17.2,38.9c0,0,0,0,0,0c-0.1,0.2-0.1,0.3-0.2,0.5l-2671.9,3.6c0.6-10.7-244-356.1,12-692.3
		c256-336.2,555.3-155,616.8-391.6c13.3-51.1,34.6-94.2,62-130c1.5-1.9,2.9-3.8,4.4-5.7c3.8-4.8,7.8-9.5,11.9-14
		c1.1-1.3,2.3-2.5,3.4-3.8c10.4-11.2,21.4-21.6,32.9-31.1c2.3-1.9,4.7-3.8,7.1-5.7h0c142.2-111.3,365.8-106.5,525.5-40.4
		c212.1,87.9,600.2-64.9,931.9,46.8c5.5,1.8,11,3.8,16.4,5.8h0c11.5,4.2,22.9,8.7,34.2,13.6c24.7,10.6,46.2,22.7,65,36
		c2.7,1.9,5.3,3.8,7.9,5.7h0c229.8,173.4,25.5,536.8,144.2,593c74.5,35.3,184.4,114.5,231.9,243c0.6,1.6,1.2,3.3,1.8,4.9
		c0.6,1.8,1.3,3.7,1.9,5.5c0.6,1.7,1.1,3.3,1.6,5C3047.6,1394.4,3050.5,1484.8,3014.8,1592z"/>
	<g class="st1">
		<g>
			<rect x="1463.8" y="560.8" class="st2" width="206.6" height="170.4"/>
			<rect x="1567.1" y="560.8" class="st3" width="206.6" height="170.4"/>
			<polygon class="st4" points="1463.9,687.9 1496.7,687.9 1493.8,678.7 1496.7,672.2 1463.9,672.2 			"/>
			<polygon class="st5" points="1567.1,613.5 1599.9,613.5 1597,604.3 1599.9,597.7 1567.1,597.7 			"/>
			<polygon class="st4" points="1567.1,597.7 1534.4,597.7 1537.3,606.9 1534.4,613.5 1567.1,613.5 			"/>
			<polygon class="st5" points="1773.8,689.8 1741,689.8 1743.9,699 1741,705.6 1773.8,705.6 			"/>
			<rect x="1700.8" y="572.3" class="st6" width="59.5" height="23.1"/>
		</g>
		<g>
			<rect x="1098.9" y="560.8" class="st2" width="206.6" height="170.4"/>
			<rect x="1202.2" y="560.8" class="st3" width="206.6" height="170.4"/>
			<polygon class="st4" points="1099,687.9 1131.8,687.9 1128.9,678.7 1131.8,672.2 1099,672.2 			"/>
			<polygon class="st5" points="1202.2,613.5 1234.9,613.5 1232.1,604.3 1234.9,597.7 1202.2,597.7 			"/>
			<polygon class="st4" points="1202.2,597.7 1169.5,597.7 1172.3,606.9 1169.5,613.5 1202.2,613.5 			"/>
			<polygon class="st5" points="1408.8,689.8 1376.1,689.8 1379,699 1376.1,705.6 1408.8,705.6 			"/>
			<rect x="1335.8" y="572.3" class="st6" width="59.5" height="23.1"/>
		</g>
		<g>
			<rect x="965.2" y="731.2" class="st2" width="79.5" height="948"/>
			<rect x="1836.6" y="731.2" class="st2" width="66.1" height="948"/>
			<rect x="1044.7" y="731.2" class="st2" width="857.9" height="24.7"/>
			<rect x="1044.7" y="1180.5" class="st2" width="857.9" height="24.7"/>
			<rect x="1044.7" y="1557.3" class="st2" width="857.9" height="24.7"/>
			<g>
				<rect x="1478.1" y="1004.3" class="st7" width="213.6" height="176.1"/>
				<rect x="1584.9" y="1004.3" class="st3" width="213.6" height="176.1"/>
				<polygon class="st4" points="1478.2,1135.8 1512.1,1135.8 1509.1,1126.3 1512.1,1119.5 1478.2,1119.5 				"/>
				<polygon class="st5" points="1584.9,1058.8 1618.8,1058.8 1615.8,1049.3 1618.8,1042.5 1584.9,1042.5 				"/>
				<polygon class="st4" points="1584.9,1042.5 1551.1,1042.5 1554.1,1052 1551.1,1058.8 1584.9,1058.8 				"/>
				<polygon class="st5" points="1798.6,1137.7 1764.7,1137.7 1767.7,1147.2 1764.7,1154 1798.6,1154 				"/>
				<rect x="1723.1" y="1016.2" class="st6" width="61.5" height="23.9"/>
			</g>
			<g>
				<rect x="1204" y="1004.3" class="st2" width="213.6" height="176.1"/>
				<rect x="1310.8" y="1004.3" class="st3" width="213.6" height="176.1"/>
				<polygon class="st4" points="1204.1,1135.8 1237.9,1135.8 1234.9,1126.3 1237.9,1119.5 1204.1,1119.5 				"/>
				<polygon class="st5" points="1310.8,1058.8 1344.6,1058.8 1341.6,1049.3 1344.6,1042.5 1310.8,1042.5 				"/>
				<polygon class="st4" points="1310.8,1042.5 1276.9,1042.5 1279.9,1052 1276.9,1058.8 1310.8,1058.8 				"/>
				<polygon class="st5" points="1524.4,1137.7 1490.6,1137.7 1493.5,1147.2 1490.6,1154 1524.4,1154 				"/>
				<polygon class="st5" points="1524.4,1040.2 1490.6,1040.2 1493.5,1049.7 1490.6,1056.5 1524.4,1056.5 				"/>
				<rect x="1332.3" y="1122.6" class="st6" width="100.2" height="39"/>
			</g>
			<g>
				<rect x="1478.1" y="1404.5" class="st2" width="184.7" height="152.2"/>
				<rect x="1570.4" y="1404.5" class="st3" width="184.7" height="152.2"/>
				<polygon class="st4" points="1478.2,1518.1 1507.5,1518.1 1504.9,1509.9 1507.5,1504 1478.2,1504 				"/>
				<polygon class="st5" points="1570.4,1451.6 1599.7,1451.6 1597.1,1443.4 1599.7,1437.5 1570.4,1437.5 				"/>
				<polygon class="st4" points="1570.4,1437.5 1541.2,1437.5 1543.8,1445.7 1541.2,1451.6 1570.4,1451.6 				"/>
				<polygon class="st5" points="1755.1,1519.8 1725.8,1519.8 1728.4,1528 1725.8,1533.9 1755.1,1533.9 				"/>
				<rect x="1689.8" y="1414.8" class="st6" width="53.1" height="20.7"/>
			</g>
			<g>
				<rect x="1127.4" y="1380.6" class="st2" width="213.6" height="176.2"/>
				<rect x="1234.2" y="1380.6" class="st3" width="213.6" height="176.2"/>
				<polygon class="st8" points="1127.6,1512.1 1161.4,1512.1 1158.4,1502.5 1161.4,1495.7 1127.6,1495.7 				"/>
				<polygon class="st9" points="1234.2,1435.1 1268.1,1435.1 1265.1,1425.6 1268.1,1418.8 1234.2,1418.8 				"/>
				<polygon class="st8" points="1234.2,1418.8 1200.4,1418.8 1203.4,1428.3 1200.4,1435.1 1234.2,1435.1 				"/>
				<polygon class="st9" points="1447.9,1513.9 1414,1513.9 1417,1523.5 1414,1530.3 1447.9,1530.3 				"/>
				<rect x="1372.4" y="1392.5" class="st6" width="61.5" height="23.9"/>
			</g>
			<g>
				<rect x="1187.6" y="868.8" class="st2" width="163.3" height="134.7"/>
				<rect x="1269.2" y="868.8" class="st3" width="163.3" height="134.7"/>
				<polygon class="st4" points="1187.7,969.3 1213.5,969.3 1211.2,962.1 1213.5,956.9 1187.7,956.9 				"/>
				<polygon class="st5" points="1269.2,910.5 1295.1,910.5 1292.8,903.2 1295.1,898 1269.2,898 				"/>
				<polygon class="st4" points="1269.2,898 1243.3,898 1245.6,905.3 1243.3,910.5 1269.2,910.5 				"/>
				<polygon class="st5" points="1432.5,970.8 1406.7,970.8 1408.9,978.1 1406.7,983.3 1432.5,983.3 				"/>
				<rect x="1374.8" y="878" class="st6" width="47" height="18.3"/>
			</g>
			<g>
				<rect x="1479.4" y="868.8" class="st2" width="163.3" height="134.7"/>
				<rect x="1561" y="868.8" class="st3" width="163.3" height="134.7"/>
				<polygon class="st4" points="1479.4,969.3 1505.3,969.3 1503.1,962.1 1505.3,956.9 1479.4,956.9 				"/>
				<polygon class="st5" points="1561,910.5 1586.9,910.5 1584.6,903.2 1586.9,898 1561,898 				"/>
				<polygon class="st4" points="1561,898 1535.1,898 1537.4,905.3 1535.1,910.5 1561,910.5 				"/>
				<polygon class="st5" points="1724.3,970.8 1698.5,970.8 1700.7,978.1 1698.5,983.3 1724.3,983.3 				"/>
				<rect x="1666.7" y="878" class="st6" width="47" height="18.3"/>
			</g>
		</g>
	</g>
	<g>
		<g>
			<path class="st10" d="M2787.4,1415.8l-4.1-1.2c10.7-36.5-8.8-74.5-43.4-84.7l-87.4-25.7c-18-5.3-28.1-25-22.5-43.9
				c18-61.1-14.7-124.8-72.8-141.9l1.3-4.3c60.4,17.8,94.3,83.9,75.6,147.4c-4.9,16.6,4,33.8,19.7,38.4l87.4,25.7
				C2778.1,1336.6,2798.8,1377,2787.4,1415.8z"/>
		</g>
		<g>
			<path class="st10" d="M2778.6,1445.8l-4.1-1.2c10.7-36.5-8.8-74.5-43.4-84.7l-87.4-25.7c-18-5.3-28.1-25-22.5-43.9
				c18-61.1-14.7-124.8-72.8-141.9l1.3-4.3c60.4,17.8,94.3,83.9,75.6,147.4c-4.9,16.6,4,33.8,19.7,38.4l87.4,25.7
				C2769.2,1366.5,2790,1407,2778.6,1445.8z"/>
		</g>
		<g>
			<rect x="2140.7" y="1002.8" class="st11" width="184" height="151.7"/>
			<rect x="2048.7" y="1002.8" class="st12" width="184" height="151.7"/>
			<polygon class="st12" points="2324.5,1116.1 2295.4,1116.1 2297.9,1107.8 2295.4,1102 2324.5,1102 			"/>
			<polygon class="st12" points="2232.7,1049.8 2203.5,1049.8 2206.1,1041.6 2203.5,1035.7 2232.7,1035.7 			"/>
			<polygon class="st12" points="2232.7,1035.7 2261.8,1035.7 2259.2,1043.9 2261.8,1049.8 2232.7,1049.8 			"/>
			<polygon class="st12" points="2048.7,1117.7 2077.8,1117.7 2075.3,1125.9 2077.8,1131.7 2048.7,1131.7 			"/>
			<rect x="2060.7" y="1013.1" class="st6" width="52.9" height="20.6"/>
		</g>
		<g>
			<path class="st10" d="M2331.2,590.3c-26.4,0-54-4.2-69.4-13c-24.4-14.1-55.4-8.1-55.7-8.1l-0.8-3.7c1.3-0.3,32.7-6.3,58.4,8.5
				c25.3,14.6,88.2,15.9,116.7,6.2c28.1-9.5,65.3-19.8,80.8-19.8v3.8c-15.1,0-51.8,10.2-79.6,19.6
				C2369.1,588.1,2350.5,590.3,2331.2,590.3z"/>
		</g>
		<rect x="2167.6" y="863" class="st10" width="12.1" height="78.7"/>
		<rect x="2191.4" y="863" class="st10" width="12.1" height="78.7"/>
		<g>
			<path class="st10" d="M2331.2,581.9c-26.4,0-54-4.2-69.4-13c-24.4-14.1-55.4-8.1-55.7-8.1l-0.8-3.7c1.3-0.3,32.7-6.3,58.4,8.5
				c25.3,14.6,88.2,15.9,116.7,6.2c28.1-9.5,65.3-19.8,80.8-19.8v3.8c-15.1,0-51.8,10.2-79.6,19.6
				C2369.1,579.6,2350.5,581.9,2331.2,581.9z"/>
		</g>
		<g>
			<path class="st10" d="M2585.3,1041.9h-5v-3.8h5c23.2,0,42.1-18.9,42.1-42.1V560.5c0-23.2-18.9-42.1-42.1-42.1h-37.1v-3.8h37.1
				c25.3,0,45.9,20.6,45.9,45.9V996C2631.2,1021.3,2610.6,1041.9,2585.3,1041.9z"/>
		</g>
		<g>
			<path class="st10" d="M2580.3,1005v-3.8c16.1,0,29.3-13.1,29.3-29.3V567.1c0-15.7-12.7-28.4-28.4-28.4h-29.4v-3.8h29.4
				c17.8,0,32.2,14.4,32.2,32.2v404.9C2613.4,990.2,2598.6,1005,2580.3,1005z"/>
		</g>
		<path class="st13" d="M2236,880.5h-104.2c-14.8,0-26.9-12-26.9-26.8V620.8c0-14.8,12-26.8,26.9-26.8H2236
			c14.8,0,26.9,12,26.9,26.8v232.8C2262.8,868.5,2250.8,880.5,2236,880.5z"/>
		<g>
			<circle class="st14" cx="2148.2" cy="634.7" r="13.7"/>
			<path class="st14" d="M2134.4,830.7c0-7.6,6.1-13.7,13.7-13.7s13.7,6.2,13.7,13.7c0,7.6-6.1,13.7-13.7,13.7
				C2140.6,844.4,2134.4,838.2,2134.4,830.7z"/>
			<path class="st14" d="M2205.8,634.7c0-7.6,6.1-13.7,13.8-13.7s13.7,6.2,13.7,13.7c0,7.6-6.1,13.7-13.7,13.7
				S2205.8,642.3,2205.8,634.7z"/>
			<path class="st14" d="M2205.8,830.7c0-7.6,6.1-13.7,13.8-13.7s13.7,6.2,13.7,13.7c0,7.6-6.1,13.7-13.7,13.7
				S2205.8,838.2,2205.8,830.7z"/>
		</g>
		<path class="st12" d="M2242.5,955.2c0,2.8-0.6,5.6-1.8,8.2h-107.9c-1.2-2.6-1.8-5.4-1.8-8.2c0-17.9,25-32.4,55.8-32.4
			S2242.5,937.3,2242.5,955.2z"/>
		<g>
			<path class="st10" d="M2336,992.2v146.7c0,11.8-5.8,22.8-15.5,29.5l-44.7,30.8c-3.2,2.2-7.6,1.4-9.8-1.8l0,0
				c-2.2-3.2-1.4-7.6,1.8-9.8l44.7-30.8c5.9-4.1,9.4-10.7,9.4-17.8V992.2c0-15.9-12.9-28.7-28.7-28.7h-212.8
				c-15.9,0-28.7,12.9-28.7,28.7V1138c0,7.5,3.8,14.4,10.2,18.4l50,31.2c3.3,2.1,4.3,6.4,2.2,9.7l0,0c-2.1,3.3-6.4,4.3-9.7,2.2
				l-50-31.2c-10.5-6.6-16.8-17.9-16.8-30.3V992.2c0-23.7,19.2-42.8,42.8-42.8h212.8C2316.8,949.3,2336,968.5,2336,992.2z"/>
		</g>
		<rect x="2179.6" y="505.7" class="st10" width="293.3" height="8.8"/>
		<rect x="2179.6" y="530.5" class="st10" width="293.3" height="8.8"/>
		<path class="st12" d="M2221.9,593.9h-87.4v-61.3c0-24.9,20.2-45.1,45.1-45.1l0,0c24.9,0,45.1,20.2,45.1,45.1v58.5
			C2224.7,592.7,2223.4,593.9,2221.9,593.9z"/>
		<path class="st13" d="M2532.3,487.4h-44.6c-21,0-38,17-38,38v795.5c0,21,17,38,38,38h44.6c21,0,38-17,38-38V525.4
			C2570.3,504.4,2553.3,487.4,2532.3,487.4z"/>
		<circle class="st10" cx="2510" cy="529.8" r="7"/>
		<path class="st15" d="M2561.8,1191.5h-107.8c-10.2,0-18.6-8.3-18.6-18.6V628.8c0-10.2,8.3-18.5,18.6-18.5h107.8
			c10.2,0,18.6,8.3,18.6,18.5v544.2C2580.3,1183.2,2572,1191.5,2561.8,1191.5z"/>
		<path class="st15" d="M2588.7,1402.9h-135.4c-9.9,0-17.9-8-17.9-17.9V1323c0-9.9,8-17.9,17.9-17.9h117.4c9.9,0,17.9,8,17.9,17.9
			V1402.9z"/>
		<g>
			
				<ellipse transform="matrix(2.270097e-02 -0.9997 0.9997 2.270097e-02 1599.6577 2697.4683)" class="st16" cx="2179.5" cy="530.5" rx="26.7" ry="26.7"/>
			<g>
				<path class="st12" d="M2179.6,558c-15.2,0-27.5-12.3-27.5-27.5c0-15.2,12.3-27.5,27.5-27.5c15.2,0,27.5,12.3,27.5,27.5
					C2207.1,545.6,2194.8,558,2179.6,558z M2179.6,504.6c-14.3,0-25.9,11.6-25.9,25.9s11.6,25.9,25.9,25.9s25.9-11.6,25.9-25.9
					C2205.4,516.2,2193.8,504.6,2179.6,504.6z"/>
			</g>
			
				<ellipse transform="matrix(0.2298 -0.9732 0.9732 0.2298 1162.3708 2529.9709)" class="st11" cx="2179.7" cy="530.6" rx="16.3" ry="16.3"/>
		</g>
	</g>
	<g>
		<g>
			
				<rect x="2788.4" y="1284.2" transform="matrix(0.9104 -0.4137 0.4137 0.9104 -295.8875 1296.5923)" class="st2" width="114.7" height="94.6"/>
			
				<rect x="2840.6" y="1260.4" transform="matrix(0.9104 -0.4137 0.4137 0.9104 -281.384 1316.0627)" class="st3" width="114.7" height="94.6"/>
			<polygon class="st9" points="2838.3,1315.2 2854.8,1307.7 2851.2,1303.7 2851.2,1299.7 2834.6,1307.2 			"/>
			<polygon class="st8" points="2834.6,1307.2 2818.1,1314.7 2821.7,1318.7 2821.7,1322.7 2838.3,1315.2 			"/>
			<polygon class="st9" points="2960.2,1306.3 2943.7,1313.8 2947.2,1317.8 2947.3,1321.8 2963.8,1314.2 			"/>
			
				<rect x="2897.5" y="1256.4" transform="matrix(0.9104 -0.4137 0.4137 0.9104 -261.3583 1318.6608)" class="st6" width="33" height="12.8"/>
		</g>
		<path class="st10" d="M3003,1592c-0.4,1.2-0.8,2.4-1.2,3.7c-3.6,10.4-7.4,20.9-11.7,31.7c-0.6,1.5-1.2,3-1.8,4.5
			c-5.2,12.8-10.9,25.7-17.2,38.9h-140.4l-8-75.1l-0.4-3.7l-0.3-2.9l-20-186.3l-0.1-1.4l10.6-4.7l52.4-23.4l52.4-23.4l52.4-23.4
			l38.9-17.4c0.6,1.8,1.3,3.7,1.9,5.5c0.6,1.7,1.1,3.3,1.6,5C3035.8,1394.4,3038.7,1484.8,3003,1592z"/>
		<path class="st17" d="M3003,1592c-0.4,1.2-0.8,2.4-1.2,3.7h-165.2l-0.4-3.7l-0.3-2.9l-18-182.6l8.3-3.7l185.6-83.2
			C3035.8,1394.4,3038.7,1484.8,3003,1592z"/>
		<path class="st13" d="M2836.7,1595.7H1423.4c-53.2,0-96.4-43.2-96.4-96.4l0,0c0-53.2,43.2-96.4,96.4-96.4h1413.3
			c53.2,0,96.4,43.2,96.4,96.4l0,0C2933.1,1552.5,2889.9,1595.7,2836.7,1595.7z"/>
		<path class="st18" d="M2933.1,1499.3c0,26.6-10.8,50.7-28.2,68.2c-17.4,17.4-41.6,28.2-68.2,28.2H2597c-5.1,0-9.3-4.2-9.3-9.3
			v-174.2c0-5.1,4.2-9.3,9.3-9.3h239.6C2889.9,1402.9,2933.1,1446,2933.1,1499.3z"/>
		<path class="st18" d="M3003,1592c-0.4,1.2-0.8,2.4-1.2,3.7c-3.6,10.4-7.4,20.9-11.7,31.7c-0.6,1.5-1.2,3-1.8,4.5
			c-5.2,12.8-10.9,25.7-17.2,38.9c0,0,0,0,0,0l-153,0.1l-1404.4,0.7V1592H3003z"/>
		<g>
			<path class="st15" d="M1837.5,1488.9l-10.9-5.1c-0.9-0.4-1.5-1.3-1.5-2.3c0-1.3-0.1-2.6-0.3-3.8c-0.2-2.4-0.7-4.7-1.3-7
				c-0.3-1,0.1-2.2,0.9-2.8l10-7.6c1.1-0.8,1.3-2.3,0.6-3.4l-6.1-9.7c-0.7-1.1-2.1-1.5-3.3-0.9l-10.3,5.1c-1,0.5-2.2,0.3-3-0.5
				c-3.4-3.5-7.3-6.5-11.7-8.8c-1.1-0.6-1.6-1.8-1.3-2.9l1.7-6.8c0.3-1.3-0.4-2.6-1.7-3.1l-10.7-3.9c-0.2-0.1-0.4-0.1-0.7-0.2
				c-1.1-0.1-2.1,0.5-2.6,1.5l-3.8,8.1l-0.9,2c-2.1-0.1-4.3,0-6.5,0.2c-2.9,0.3-5.8,0.9-8.5,1.7c-1,0.3-2.2,0-2.8-0.9l-6.1-8
				c-0.8-1.1-2.4-1.4-3.5-0.6l-7.4,4.7l-2.1,1.3c-1.2,0.7-1.6,2.2-1,3.4l4.2,8.7c0.5,1,0.3,2.2-0.5,3c-2.3,2.3-4.4,4.9-6.1,7.7
				c-0.2,0.2-0.3,0.5-0.4,0.7c0,0.1-0.1,0.2-0.2,0.2c-0.6,0.8-1.7,1.2-2.7,1l-11.1-2.7c-0.1,0-0.2,0-0.4-0.1
				c-1.2-0.1-2.3,0.6-2.7,1.7l-3.9,10.7c-0.5,1.3,0.1,2.7,1.4,3.3l11.3,5.3c1,0.4,1.6,1.4,1.5,2.5c-0.1,2.3,0,4.7,0.2,7.1
				c0.1,1.3,0.3,2.5,0.6,3.8c0.2,1-0.2,2-1,2.6l-9.6,7.3c-1.1,0.8-1.3,2.3-0.6,3.4l6.1,9.6c0.7,1.2,2.2,1.6,3.5,1l8.2-4
				c1.1-0.5,2.4-0.3,3.2,0.7c3.1,3.7,6.7,6.9,10.7,9.4c1,0.6,1.4,1.7,1.2,2.8l-2.4,10c-0.3,1.3,0.4,2.7,1.7,3.2l10.6,3.9
				c1.3,0.5,2.7-0.1,3.2-1.4l0.2-0.5l4.4-9.4c0.5-1,1.5-1.6,2.6-1.5h0c2.7,0.2,5.4,0.1,8.1-0.2c1.5-0.2,2.9-0.4,4.3-0.7
				c1-0.2,2,0.2,2.6,1l6.2,8.2c0.8,1.1,2.4,1.4,3.6,0.7l9.5-6.1c0.3-0.2,0.5-0.4,0.7-0.6c0.6-0.8,0.7-1.8,0.3-2.8l-3.4-6.9
				c-0.4-0.8-0.3-1.8,0.2-2.6c0.1-0.2,0.3-0.4,0.5-0.6c4.7-3.9,8.6-8.8,11.4-14.2c0.5-0.9,1.5-1.5,2.5-1.4c0.2,0,0.3,0,0.4,0.1
				l8.9,2.2c1.3,0.3,2.6-0.4,3.1-1.7l0.1-0.2l3.8-10.4C1839.3,1490.9,1838.7,1489.5,1837.5,1488.9z M1802.2,1492.3
				c-1.1,3.1-3.9,6.8-6.7,9.3c-0.7,0.6-1.3,1.1-1.9,1.4c-2.9,1.8-5.9,3.1-8.9,3.7c-17,3.8-32.8-10.5-29.9-28.6
				c0.3-1.8,0.8-3.7,1.5-5.5c1.3-3.6,5.1-8.2,8.3-10.3c0.3-0.2,0.7-0.4,1-0.6C1786.8,1449.3,1810.6,1468.8,1802.2,1492.3z"/>
		</g>
		<g>
			<path class="st17" d="M1911.1,1535.7l-7.8-3.6c-0.7-0.3-1.1-1-1.1-1.7c0-0.9-0.1-1.8-0.2-2.8c-0.2-1.7-0.5-3.4-0.9-5
				c-0.2-0.8,0.1-1.6,0.7-2l7.2-5.5c0.8-0.6,1-1.7,0.4-2.5l-4.4-7c-0.5-0.8-1.5-1.1-2.3-0.7l-7.4,3.7c-0.7,0.4-1.6,0.2-2.2-0.4
				c-2.4-2.5-5.3-4.7-8.4-6.3c-0.8-0.4-1.1-1.3-0.9-2.1l1.2-4.9c0.2-0.9-0.3-1.9-1.2-2.2l-7.7-2.8c-0.2-0.1-0.3-0.1-0.5-0.1
				c-0.8-0.1-1.5,0.3-1.8,1.1l-2.7,5.8l-0.7,1.4c-1.5,0-3.1,0-4.7,0.2c-2.1,0.2-4.2,0.7-6.1,1.2c-0.7,0.2-1.6,0-2-0.7l-4.4-5.8
				c-0.6-0.8-1.7-1-2.5-0.5l-5.3,3.4l-1.5,1c-0.8,0.5-1.1,1.6-0.7,2.5l3.1,6.2c0.4,0.7,0.2,1.6-0.3,2.1c-1.7,1.7-3.2,3.6-4.4,5.5
				c-0.1,0.2-0.2,0.3-0.3,0.5c0,0.1-0.1,0.1-0.1,0.2c-0.4,0.6-1.2,0.9-2,0.7l-8-1.9c-0.1,0-0.2,0-0.3-0.1c-0.8-0.1-1.7,0.4-1.9,1.2
				l-2.8,7.7c-0.3,0.9,0.1,1.9,1,2.4l8.2,3.8c0.7,0.3,1.1,1,1.1,1.8c-0.1,1.7,0,3.4,0.2,5.1c0.1,0.9,0.2,1.8,0.4,2.7
				c0.1,0.7-0.1,1.5-0.7,1.9l-6.9,5.3c-0.8,0.6-1,1.7-0.4,2.5l4.4,6.9c0.5,0.8,1.6,1.1,2.5,0.7l5.9-2.9c0.8-0.4,1.7-0.2,2.3,0.5
				c2.2,2.6,4.8,4.9,7.7,6.8c0.7,0.4,1,1.3,0.8,2.1l-1.8,7.2c-0.2,1,0.3,1.9,1.2,2.3l7.6,2.8c0.9,0.3,1.9-0.1,2.3-1l0.2-0.3l3.2-6.8
				c0.3-0.7,1.1-1.2,1.9-1.1h0c1.9,0.1,3.9,0.1,5.8-0.1c1.1-0.1,2.1-0.3,3.1-0.5c0.7-0.2,1.4,0.1,1.9,0.7l4.5,5.9
				c0.6,0.8,1.7,1,2.6,0.5l6.9-4.3c0.2-0.1,0.3-0.3,0.5-0.4c0.4-0.6,0.5-1.3,0.2-2l-2.5-5c-0.3-0.6-0.2-1.3,0.1-1.9
				c0.1-0.1,0.2-0.3,0.3-0.4c3.4-2.8,6.2-6.3,8.2-10.2c0.3-0.7,1.1-1,1.8-1c0.1,0,0.2,0,0.3,0l6.4,1.6c0.9,0.2,1.9-0.3,2.2-1.2
				l0.1-0.2l2.7-7.5C1912.4,1537.1,1912,1536.1,1911.1,1535.7z M1885.7,1538.2c-0.8,2.2-2.8,4.9-4.8,6.7c-0.5,0.4-0.9,0.8-1.4,1
				c-2.1,1.3-4.3,2.2-6.4,2.7c-12.2,2.7-23.6-7.6-21.5-20.6c0.2-1.3,0.6-2.6,1.1-4c1-2.6,3.6-5.9,5.9-7.4c0.2-0.2,0.5-0.3,0.8-0.5
				C1874.6,1507.2,1891.8,1521.3,1885.7,1538.2z"/>
		</g>
		<g>
			<path class="st15" d="M2254.6,1488.9l-10.9-5.1c-0.9-0.4-1.5-1.3-1.5-2.3c0-1.3-0.1-2.6-0.2-3.8c-0.3-2.4-0.7-4.7-1.3-7
				c-0.3-1,0.1-2.2,0.9-2.8l10-7.6c1.1-0.8,1.4-2.3,0.6-3.4l-6.1-9.7c-0.7-1.1-2.1-1.5-3.3-0.9l-10.4,5.1c-1,0.5-2.2,0.3-3-0.5
				c-3.4-3.5-7.3-6.5-11.7-8.8c-1-0.6-1.6-1.8-1.3-2.9l1.7-6.8c0.3-1.3-0.4-2.6-1.7-3.1l-10.7-3.9c-0.2-0.1-0.4-0.1-0.7-0.2
				c-1.1-0.1-2.1,0.5-2.6,1.5l-3.8,8.1l-0.9,2c-2.1-0.1-4.3,0-6.5,0.2c-2.9,0.3-5.8,0.9-8.5,1.7c-1,0.3-2.1,0-2.8-0.9l-6.1-8
				c-0.8-1.1-2.4-1.4-3.5-0.6l-7.4,4.7l-2.1,1.3c-1.2,0.7-1.6,2.2-1,3.4l4.2,8.7c0.5,1,0.3,2.2-0.5,3c-2.3,2.3-4.4,4.9-6.1,7.7
				c-0.2,0.2-0.3,0.5-0.4,0.7c0,0.1-0.1,0.2-0.2,0.2c-0.6,0.8-1.7,1.2-2.7,1l-11.1-2.7c-0.1,0-0.2,0-0.4-0.1
				c-1.2-0.1-2.3,0.6-2.7,1.7l-3.9,10.7c-0.5,1.3,0.1,2.7,1.4,3.3l11.4,5.3c1,0.4,1.6,1.4,1.5,2.5c-0.1,2.3,0,4.7,0.2,7.1
				c0.1,1.3,0.3,2.5,0.6,3.8c0.2,1-0.2,2-1,2.6l-9.6,7.3c-1.1,0.8-1.3,2.3-0.6,3.4l6.1,9.6c0.7,1.2,2.2,1.6,3.5,1l8.2-4
				c1.1-0.5,2.4-0.3,3.2,0.7c3,3.7,6.6,6.9,10.7,9.4c0.9,0.6,1.4,1.7,1.1,2.8l-2.4,10c-0.3,1.3,0.4,2.7,1.7,3.2l10.6,3.9
				c1.3,0.5,2.7-0.1,3.2-1.4l0.2-0.5l4.4-9.4c0.5-1,1.5-1.6,2.6-1.5h0c2.7,0.2,5.4,0.1,8.1-0.2c1.5-0.2,2.9-0.4,4.3-0.7
				c1-0.2,2,0.2,2.6,1l6.2,8.2c0.8,1.1,2.4,1.4,3.6,0.7l9.5-6.1c0.3-0.2,0.5-0.4,0.7-0.6c0.6-0.8,0.7-1.8,0.3-2.8l-3.4-6.9
				c-0.4-0.8-0.3-1.8,0.2-2.6c0.1-0.2,0.3-0.4,0.5-0.6c4.7-3.9,8.6-8.8,11.4-14.2c0.5-0.9,1.5-1.5,2.5-1.4c0.1,0,0.3,0,0.4,0.1
				l9,2.2c1.3,0.3,2.6-0.4,3.1-1.7l0.1-0.2l3.8-10.4C2256.4,1490.9,2255.8,1489.5,2254.6,1488.9z M2219.3,1492.3
				c-1.1,3.1-3.9,6.8-6.7,9.3c-0.7,0.6-1.3,1.1-1.9,1.4c-2.9,1.8-5.9,3.1-8.9,3.7c-17,3.8-32.8-10.5-29.9-28.6
				c0.3-1.8,0.8-3.7,1.5-5.5c1.3-3.6,5-8.2,8.3-10.3c0.4-0.2,0.7-0.4,1-0.6C2203.9,1449.3,2227.7,1468.8,2219.3,1492.3z"/>
		</g>
		<g>
			<path class="st17" d="M2328.2,1535.7l-7.8-3.6c-0.6-0.3-1.1-1-1.1-1.7c0-0.9-0.1-1.8-0.2-2.8c-0.2-1.7-0.5-3.4-0.9-5
				c-0.2-0.8,0.1-1.6,0.7-2l7.2-5.5c0.8-0.6,1-1.7,0.4-2.5l-4.4-7c-0.5-0.8-1.5-1.1-2.4-0.7l-7.4,3.7c-0.7,0.4-1.6,0.2-2.2-0.4
				c-2.4-2.5-5.3-4.7-8.4-6.3c-0.8-0.4-1.1-1.3-0.9-2.1l1.2-4.9c0.2-0.9-0.3-1.9-1.2-2.2l-7.7-2.8c-0.1-0.1-0.3-0.1-0.5-0.1
				c-0.8-0.1-1.5,0.3-1.9,1.1l-2.7,5.8l-0.7,1.4c-1.5,0-3.1,0-4.6,0.2c-2.1,0.2-4.1,0.7-6.1,1.2c-0.8,0.2-1.6,0-2-0.7l-4.4-5.8
				c-0.6-0.8-1.7-1-2.5-0.5l-5.3,3.4l-1.5,1c-0.8,0.5-1.1,1.6-0.7,2.5l3.1,6.2c0.4,0.7,0.2,1.6-0.3,2.1c-1.7,1.7-3.1,3.6-4.4,5.5
				c-0.1,0.2-0.2,0.3-0.3,0.5c0,0.1-0.1,0.1-0.1,0.2c-0.5,0.6-1.2,0.9-2,0.7l-8-1.9c-0.1,0-0.2,0-0.3-0.1c-0.8-0.1-1.7,0.4-1.9,1.2
				l-2.8,7.7c-0.3,0.9,0.1,1.9,1,2.4l8.1,3.8c0.7,0.3,1.1,1,1.1,1.8c-0.1,1.7,0,3.4,0.2,5.1c0.1,0.9,0.2,1.8,0.4,2.7
				c0.1,0.7-0.1,1.5-0.7,1.9l-6.9,5.3c-0.8,0.6-0.9,1.7-0.4,2.5l4.4,6.9c0.5,0.8,1.6,1.1,2.5,0.7l5.9-2.9c0.8-0.4,1.7-0.2,2.3,0.5
				c2.2,2.6,4.8,4.9,7.7,6.8c0.7,0.4,1,1.3,0.8,2.1l-1.8,7.2c-0.2,1,0.3,1.9,1.2,2.3l7.6,2.8c0.9,0.3,1.9-0.1,2.3-1l0.2-0.3l3.1-6.8
				c0.3-0.7,1.1-1.2,1.9-1.1h0c1.9,0.1,3.9,0.1,5.9-0.1c1.1-0.1,2.1-0.3,3.1-0.5c0.7-0.2,1.4,0.1,1.9,0.7l4.5,5.9
				c0.6,0.8,1.7,1,2.6,0.5l6.9-4.3c0.2-0.1,0.4-0.3,0.5-0.4c0.4-0.6,0.5-1.3,0.2-2l-2.4-5c-0.3-0.6-0.2-1.3,0.1-1.9
				c0.1-0.1,0.2-0.3,0.4-0.4c3.4-2.8,6.2-6.3,8.2-10.2c0.3-0.7,1-1,1.8-1c0.1,0,0.2,0,0.3,0l6.4,1.6c0.9,0.2,1.9-0.3,2.2-1.2
				l0.1-0.2l2.7-7.5C2329.5,1537.1,2329.1,1536.1,2328.2,1535.7z M2302.8,1538.2c-0.8,2.2-2.8,4.9-4.8,6.7c-0.5,0.4-0.9,0.8-1.4,1
				c-2.1,1.3-4.3,2.2-6.4,2.7c-12.2,2.7-23.6-7.6-21.5-20.6c0.2-1.3,0.6-2.6,1.1-4c1-2.6,3.6-5.9,5.9-7.4c0.2-0.2,0.5-0.3,0.8-0.5
				C2291.7,1507.2,2308.9,1521.3,2302.8,1538.2z"/>
		</g>
		<g>
			<path class="st15" d="M2020.6,1478.9l-11.8-2.1c-1-0.2-1.8-0.9-2.1-1.8c-0.4-1.2-0.8-2.4-1.2-3.7c-0.9-2.2-1.9-4.4-3-6.4
				c-0.6-0.9-0.5-2.1,0.2-2.9l7.7-9.9c0.8-1.1,0.7-2.6-0.3-3.5l-8.4-7.8c-1-0.9-2.4-0.9-3.4-0.1l-8.7,7.6c-0.8,0.8-2.1,0.8-3.1,0.2
				c-4.2-2.5-8.7-4.4-13.5-5.5c-1.2-0.3-2-1.3-2-2.5l-0.1-7c0-1.3-1.1-2.5-2.4-2.6l-11.3-1c-0.2,0-0.4,0-0.7,0
				c-1.1,0.2-1.9,1-2.1,2.1l-1.6,8.8l-0.4,2.2c-2.1,0.5-4.2,1.1-6.2,1.9c-2.7,1.1-5.3,2.4-7.8,3.8c-0.9,0.6-2.1,0.5-2.9-0.2l-8-6.2
				c-1.1-0.8-2.6-0.7-3.6,0.3l-6,6.4l-1.7,1.8c-0.9,1-1,2.6-0.1,3.6l6.3,7.3c0.8,0.8,0.9,2,0.3,3c-1.6,2.9-3,5.9-3.9,9
				c-0.1,0.3-0.2,0.5-0.3,0.8c0,0.1-0.1,0.2-0.1,0.3c-0.4,1-1.3,1.6-2.4,1.6l-11.4,0.2c-0.1,0-0.2,0-0.4,0c-1.2,0.2-2.1,1.2-2.2,2.4
				l-1,11.3c-0.1,1.4,0.8,2.6,2.2,2.8l12.3,2.2c1,0.2,1.8,1,2.1,2c0.5,2.3,1.2,4.6,2,6.8c0.5,1.2,1,2.4,1.5,3.5
				c0.4,0.9,0.3,2-0.3,2.8l-7.4,9.5c-0.8,1-0.7,2.5,0.3,3.5l8.3,7.7c1,0.9,2.5,1,3.6,0.1l6.9-6c0.9-0.8,2.3-0.9,3.3-0.2
				c3.9,2.8,8.2,4.9,12.7,6.4c1.1,0.3,1.8,1.3,1.8,2.5l0.2,10.3c0,1.4,1.1,2.5,2.5,2.6l11.2,1c1.3,0.1,2.6-0.8,2.8-2.1l0.1-0.5
				l1.8-10.2c0.2-1.1,1-1.9,2.1-2.2l0,0c2.6-0.5,5.2-1.2,7.8-2.2c1.4-0.5,2.7-1.1,4-1.8c0.9-0.5,2-0.3,2.8,0.3l8.1,6.3
				c1.1,0.9,2.7,0.7,3.6-0.3l7.7-8.3c0.2-0.2,0.4-0.5,0.5-0.8c0.4-0.9,0.2-2-0.4-2.8l-5.1-5.8c-0.6-0.7-0.8-1.7-0.5-2.6
				c0.1-0.2,0.2-0.4,0.3-0.7c3.5-5,6-10.7,7.4-16.7c0.2-1,1-1.8,2-2c0.1,0,0.3,0,0.4-0.1l9.2-0.2c1.3,0,2.4-1.1,2.6-2.4l0-0.3l1-11
				C2022.9,1480.4,2022,1479.1,2020.6,1478.9z M1987.4,1491.2c-0.3,3.2-2,7.6-4.1,10.7c-0.5,0.7-1,1.4-1.5,1.9
				c-2.4,2.5-5,4.5-7.7,5.9c-15.4,8-34.4-1.7-36.2-20c-0.2-1.8-0.2-3.8,0-5.7c0.4-3.8,2.8-9.2,5.4-12.1c0.3-0.3,0.6-0.6,0.8-0.9
				C1961.4,1453.6,1989.5,1466.4,1987.4,1491.2z"/>
		</g>
		<path class="st17" d="M3003,1592c-0.4,1.2-0.8,2.4-1.2,3.7c-3.6,10.4-7.4,20.9-11.7,31.7c-0.6,1.5-1.2,3-1.8,4.5
			c-5.2,12.8-10.9,25.7-17.2,38.9c0,0,0,0,0,0l-153,0.1V1592H3003z"/>
		<g>
			<path class="st10" d="M2836.7,1600H1423.4c-55.6,0-100.8-45.2-100.8-100.8c0-26.9,10.5-52.2,29.5-71.2s44.3-29.5,71.2-29.5
				h1413.3c55.6,0,100.7,45.2,100.7,100.7c0,26.9-10.5,52.2-29.5,71.2C2888.9,1589.6,2863.6,1600,2836.7,1600z M1423.4,1407.2
				c-24.6,0-47.7,9.6-65.1,27c-17.4,17.4-27,40.5-27,65.1c0,50.8,41.3,92.1,92.1,92.1h1413.3c24.6,0,47.7-9.6,65.1-27
				c17.4-17.4,27-40.5,27-65.1c0-50.8-41.3-92.1-92.1-92.1H1423.4z"/>
		</g>
	</g>
	<g>
		<path class="st19" d="M642.2,1004h-93.6c-4.3,0-7.8-3.5-7.8-7.8v-90.3c0-4.3,3.5-7.8,7.8-7.8h93.6c4.3,0,7.8,3.5,7.8,7.8v90.3
			C650,1000.5,646.5,1004,642.2,1004z"/>
		<path class="st20" d="M638.1,999.4h-85.5c-3.9,0-7.1-3.2-7.1-7.1v-82.5c0-3.9,3.2-7.1,7.1-7.1h85.5c3.9,0,7.1,3.2,7.1,7.1v82.5
			C645.2,996.2,642,999.4,638.1,999.4z"/>
		<g>
			<g>
				<circle class="st21" cx="595.4" cy="912.3" r="2.3"/>
				<path class="st21" d="M611.4,915.5c0.6-1.1,2-1.5,3.1-0.9c1.1,0.6,1.5,2,0.9,3.1c-0.6,1.1-2,1.5-3.1,0.9
					C611.2,918,610.8,916.6,611.4,915.5z"/>
				<path class="st21" d="M627,927.9c1-0.7,2.5-0.4,3.1,0.7s0.4,2.5-0.7,3.1s-2.5,0.4-3.1-0.7S626,928.6,627,927.9z"/>
				<path class="st21" d="M634.8,947.1c1.2,0,2.3,1,2.3,2.3s-1,2.3-2.3,2.3s-2.3-1-2.3-2.3S633.5,947.1,634.8,947.1z"/>
				<path class="st21" d="M630.8,969.5c0.9,0.9,0.9,2.3,0,3.2s-2.3,0.9-3.2,0s-0.9-2.3,0-3.2C628.5,968.6,629.9,968.6,630.8,969.5z"
					/>
				<path class="st21" d="M616.6,983.7c0.9,0.9,0.9,2.3,0,3.2s-2.3,0.9-3.2,0s-0.9-2.3,0-3.2S615.7,982.8,616.6,983.7z"/>
				<path class="st21" d="M593.1,991.1c0-1.2,1-2.3,2.3-2.3s2.3,1,2.3,2.3s-1,2.3-2.3,2.3C594.1,993.3,593.1,992.3,593.1,991.1z"/>
			</g>
			<g>
				<path class="st21" d="M579.3,915.5c-0.6-1.1-2-1.5-3.1-0.9c-1.1,0.6-1.5,2-0.9,3.1c0.6,1.1,2,1.5,3.1,0.9
					C579.5,918,579.9,916.6,579.3,915.5z"/>
				<path class="st21" d="M563.7,927.9c-1-0.7-2.5-0.4-3.1,0.7s-0.4,2.5,0.7,3.1s2.5,0.4,3.1-0.7C565,930,564.7,928.6,563.7,927.9z"
					/>
				<circle class="st21" cx="555.9" cy="949.4" r="2.3"/>
				<path class="st21" d="M559.9,969.5c-0.9,0.9-0.9,2.3,0,3.2s2.3,0.9,3.2,0s0.9-2.3,0-3.2C562.2,968.6,560.8,968.6,559.9,969.5z"
					/>
				<path class="st21" d="M574.1,983.7c-0.9,0.9-0.9,2.3,0,3.2s2.3,0.9,3.2,0s0.9-2.3,0-3.2S575,982.8,574.1,983.7z"/>
			</g>
		</g>
		<g>
			<circle class="st21" cx="597" cy="949.4" r="2.3"/>
			<g>
				<rect x="596.7" y="921.1" class="st21" width="0.6" height="28.3"/>
			</g>
			<g>
				
					<rect x="594.7" y="942.6" transform="matrix(0.7866 -0.6175 0.6175 0.7866 -453.6512 574.4739)" class="st21" width="19.1" height="1.9"/>
			</g>
		</g>
	</g>
	<g>
		<g>
			<rect x="1553.9" y="1131.7" class="st11" width="139.8" height="115.2"/>
			<rect x="1623.8" y="1131.7" class="st12" width="139.8" height="115.2"/>
			<polygon class="st22" points="1554,1217.7 1576.1,1217.7 1574.2,1211.5 1576.1,1207 1554,1207 			"/>
			<polygon class="st12" points="1623.8,1167.4 1645.9,1167.4 1644,1161.2 1645.9,1156.7 1623.8,1156.7 			"/>
			<polygon class="st12" points="1623.8,1156.7 1601.6,1156.7 1603.6,1162.9 1601.6,1167.4 1623.8,1167.4 			"/>
			<polygon class="st12" points="1763.5,1219 1741.4,1219 1743.3,1225.2 1741.4,1229.7 1763.5,1229.7 			"/>
			<rect x="1714.2" y="1139.5" class="st6" width="40.2" height="15.7"/>
		</g>
		<path class="st23" d="M1697.6,1242.1c3.4-2.2,11.1-7,11.4-5.9c0.2,0.8-0.2,2.2-1.2,3.6c4.6-1.5,9.2-2.4,20,0.1
			c2.2,0.5,4.1,1.8,5.2,3.7c1,1.8,1.4,3.9-1.5,5.6c-5.7,3.2-4,1.2-11.9,6s-17.4,5.6-22.9,1.9l-7.5-1.6l-0.5-12.5
			C1688.8,1243,1693.2,1242.6,1697.6,1242.1z"/>
		<path class="st24" d="M1543.9,1118.1c-20.7,12.9-42.2-4.6-42.2-4.6s8.2-21.1,3.1-48.8c-0.2-1.1,36.2,13.9,37.2,14.1c0,0,0,0,0,0
			s0,0.1,0,0.2c0,0.2,0,0.3,0.1,0.5c0.6,4.9,1,9.8,1.2,14.3C1544.2,1107.3,1543.9,1118.1,1543.9,1118.1z"/>
		<path class="st25" d="M1543.4,1093.8c-16.5-1.5-29.2-10.8-33.4-16c-1.3-1.6,31.1,0.8,32.1,0.9c0,0,0,0,0,0s0,0.1,0,0.2
			c0,0.1,0,0.3,0.1,0.5C1542.7,1084.4,1543.1,1089.3,1543.4,1093.8z"/>
		<path class="st24" d="M1548.8,1076.4c0,0-35.7,15.8-45.1-6.6c-9.5-22.3-20.5-35.4,1.9-46.4c22.4-11,30.4-4.4,35.4,2.3
			C1546,1032.5,1557.9,1071.7,1548.8,1076.4z"/>
		<path class="st8" d="M1506.2,1075.9c-0.4,0.4-8,4.4-28.9-23c-3.3-4.3-6.8-14.3-3-24.4s22.2-21,38-27.2c7.4-2.9,14.5-2.3,19.9-0.9
			c6.7,1.7,10.6,8.7,8.7,15.3c-3,10.5-10.4,16.9-19.8,16.6c-6.3-0.2-5.9,12.6-5.8,15.7c0.1,3.1-0.1,5.7-8,4.4
			c-6.8-1.1-3,7.9-0.7,11.9c1.1,2,1.8,4.2,1.6,6.5C1508.2,1072.6,1507.7,1074.5,1506.2,1075.9z"/>
		<path class="st26" d="M1451.6,1671.4h-23c-4.8,0-10.2-4.8-11.5-13.7c-1.3-8.8-11.2-13.7-13.4-20.9s8.8-17.4,8.8-17.4l1.8-2.4
			l1.9-2.5l18.2,4.3c0,0,0.4,4.3,0.7,9.8c0.2,4,0.3,8.6,0.1,12.6c-0.5,9.6,2.7,20,11.3,21.9
			C1455.2,1665.2,1451.6,1671.4,1451.6,1671.4z"/>
		<path class="st26" d="M1611.6,1671.4h-60.9c-0.6-0.1-1-0.2-1.3-0.4c-4.1-2-2.8-17.6-2.3-22.4c0.1-0.9,0.2-1.4,0.2-1.4
			s21.4-17.1,24.4-4c0.1,0.4,0.2,0.8,0.3,1.2v0c3.7,12.3,20.3,17.8,29.9,19.4C1609.2,1664.9,1611.1,1669.2,1611.6,1671.4z"/>
		<path class="st12" d="M1599.3,1320.1c0,0-3.2,40.6-7.1,89.4c-5.2,66.3-11.4,147.7-12.1,163.1c-1.1,26.8-5.4,69.6-5.4,69.6
			s-10.2,10.2-30.5,5.9c0,0-18.1-61.1-23.3-125.8c-0.1-1.1-0.2-2.1-0.2-3.2c-4.8-65.9-12.3-204.5-12.3-204.5L1599.3,1320.1z"/>
		<path class="st8" d="M1590.3,1314.5c-8.6,0.5-99.2-2.9-99.2-8c-0.1-17.6-3.8-46.1-8.3-80.7c-0.8-6.4-1.5-12.8-2-19.2
			c-1.3-16.5-1.3-32.3-0.1-46.7c2.3-26.6,9.2-43.7,20.7-53.7c0,0,10.8,0.9,20.8,2.4c11.3,1.7,15.5,1,23.3-1.2l13.8,11.9
			c8.3,7.7,14.9,15.8,17.6,26.9C1576.9,1146.3,1591,1314.4,1590.3,1314.5z"/>
		<path class="st27" d="M1495.6,1192.8c0,0,9.5,30.2,41.4,44.8s12.8-27.8,12.8-27.8L1495.6,1192.8z"/>
		<path class="st12" d="M1576.9,1146.3l-24.7,5.8l-34.1,92.2c-4.9,13.2-16.2,21.4-30.3,21.4l-0.1,2.2l1.7,43.9l109.7,10
			c0,0,0.5-55-1.4-72.6C1594.8,1223.2,1576.9,1146.3,1576.9,1146.3z"/>
		<path class="st8" d="M1695.5,1249c0.8-7.2-2.9-8.6-2.9-8.6s-72.9-16.2-79.1-18.4c-6.2-2.2-57.4-59.8-57.4-59.8
			s-19.6-23.9-36.5-19.4c-14.7,3.9-20.9,15-23.2,25.8c-2.8,12.8-11.6,16.9-0.7,24.2c24.5,16.3,87.7,57.7,99.4,61.6
			c26,8.7,96.9,4.4,96.9,4.4S1694.9,1254.7,1695.5,1249z"/>
		<path class="st12" d="M1526.5,1125.4c-5.8-5.3-25.1-19.1-25.1-19.1s0.8-1.3,1.9-2.4c1.1-1.1,2.5-1.9,2.5-1.9
			c2.5-0.5,21.6,13.8,27.9,19.5c7.7,6.8,28.9,28.2,28.9,28.2l-10.4,2.4C1552.1,1152.1,1533.3,1131.7,1526.5,1125.4z"/>
		<g>
			<path class="st12" d="M1550.3,1023.6c0,0-14.2,8-19.5,9.3c-1.6,0.4-24.8,6.2-24.8,6.2l-33.3,12.2c0,0-11.3-24.3,2.6-43.3v0
				c0.3-0.5,0.7-1,1.1-1.4c3.8-4.7,9.3-9.1,17.1-12.6C1532.9,976.4,1549.9,1022.2,1550.3,1023.6z"/>
			<g>
				<path class="st11" d="M1531.2,1032.2l-6.3,2c-6.3-5.8-29.2-25.7-49.7-25.6c0.1-0.2,0.2-0.4,0.2-0.5v0c0.3-0.5,0.5-0.7,0.9-1.4
					c0.1,0,0.1,0,0.2,0C1503,1008.2,1525.9,1027,1531.2,1032.2z"/>
			</g>
			<path class="st12" d="M1506.1,1039.2c0,0-3.5,5.8-3.8,10.8c-0.3,5-22.1,11.9-24.1,9.7c-2-2.2-5.4-8.3-5.4-8.3L1506.1,1039.2z"/>
			<path class="st11" d="M1506.1,1039.2c0,0,41.2-6.6,58.2-19.9c1.3-1,0.7-3.1-1-3.2c-2.9-0.2-7.9-0.1-15.9,1
				C1547.5,1017.2,1535,1032,1506.1,1039.2z"/>
		</g>
		<path class="st11" d="M1587.2,1317.4c0,0,2.1,25.3-9.6,72.8c-8.6,34.9-56.6,132-56.6,132c-0.1-1.1-0.2-2.1-0.2-3.2
			c-4.8-65.9-12.3-204.5-12.3-204.5L1587.2,1317.4z"/>
		<path class="st12" d="M1587.2,1317.4c0,0-61.4,154.5-99.9,223.6s-50.6,88.3-50.6,88.3s-22.1-8.8-24.1-14.9
			c0,0,14.7-133.3,40.6-165.8c14.6-18.4,31.7-73.5,32.5-92.8s2.9-65.4,2.9-65.4L1587.2,1317.4z"/>
	</g>
	<g class="st28">
		<path class="st2" d="M2506.8,407.1c5.5,1.8,11,3.8,16.4,5.8l-35.2-0.1h0l-9.3,0h0l-108.2-0.5l-9.3,0h0l-108.2-0.5l-9.3,0h0
			l-108.2-0.5l-9.3,0h0l-108.2-0.5l-9.3,0h0l-108.2-0.5l-9.3,0h0l-108.2-0.5l-9.3,0h0l-108.2-0.5l-9.3,0h0l-108.2-0.5l-9.3,0h0
			l-108.2-0.5l-9.3,0h0l-108.2-0.5l-9.3,0h0l-108.2-0.5l-9.3,0h0l-108.2-0.5l-9.3,0h0l-26.2-0.1c2.3-1.9,4.7-3.8,7.1-5.7h0l19.5,0.1
			h0l117.5,0.5h0l117.5,0.5h0l117.5,0.5h0L1539,403h0l117.5,0.5h0L1774,404h0l117.5,0.5h0L2009,405h0l117.5,0.5h0l117.5,0.5h0
			l117.5,0.5h0l117.5,0.5L2506.8,407.1z"/>
		<path class="st2" d="M2622.5,462.5c2.7,1.9,5.3,3.8,7.9,5.7L989.7,461c1.5-1.9,2.9-3.8,4.4-5.7l33.9,0.1l9.3,0l108.2,0.5l9.3,0
			l108.2,0.5h0l9.3,0l108.2,0.5h0l9.3,0l108.2,0.5h0l9.3,0h0l108.2,0.5h0l9.3,0h0l108.2,0.5h0l9.3,0h0l108.2,0.5h0l9.3,0h0
			l108.2,0.5h0l9.3,0h0l108.2,0.5h0l9.3,0h0l108.2,0.5h0l9.3,0h0l108.2,0.5h0l9.3,0h0l108.2,0.5h0l9.3,0h0l108.2,0.5h0l9.3,0h0
			L2622.5,462.5z"/>
		<g>
			<g>
				<path class="st2" d="M1037.4,455.5l-2.7,4.2l-6.6-4.3l-22.1-14.2c1.1-1.3,2.3-2.5,3.4-3.8L1037.4,455.5L1037.4,455.5z"/>
			</g>
			<g>
				
					<rect x="1108.1" y="379.5" transform="matrix(0.5405 -0.8413 0.8413 0.5405 148.0737 1132.2041)" class="st2" width="5" height="102.2"/>
			</g>
			<g>
				
					<rect x="1225.6" y="380" transform="matrix(0.5405 -0.8413 0.8413 0.5405 201.6297 1231.3003)" class="st2" width="5" height="102.2"/>
			</g>
			<g>
				
					<rect x="1343.1" y="380.5" transform="matrix(0.5405 -0.8413 0.8413 0.5405 255.1752 1330.4056)" class="st2" width="5" height="102.2"/>
			</g>
			<g>
				
					<rect x="1460.6" y="381" transform="matrix(0.5405 -0.8413 0.8413 0.5405 308.7297 1429.5129)" class="st2" width="5" height="102.2"/>
			</g>
			<g>
				
					<rect x="1578.1" y="381.5" transform="matrix(0.5405 -0.8413 0.8413 0.5405 362.2867 1528.6062)" class="st2" width="5" height="102.2"/>
			</g>
			<g>
				
					<rect x="1695.6" y="382.1" transform="matrix(0.5405 -0.8413 0.8413 0.5405 415.8406 1627.7155)" class="st2" width="5" height="102.2"/>
			</g>
			<g>
				
					<rect x="1813.1" y="382.6" transform="matrix(0.5405 -0.8413 0.8413 0.5405 469.3964 1726.812)" class="st2" width="5" height="102.2"/>
			</g>
			<g>
				
					<rect x="1930.7" y="383.1" transform="matrix(0.5405 -0.8413 0.8413 0.5405 522.952 1825.9164)" class="st2" width="5" height="102.2"/>
			</g>
			<g>
				
					<rect x="2048.2" y="383.6" transform="matrix(0.5405 -0.8413 0.8413 0.5405 576.5093 1925.0145)" class="st2" width="5" height="102.2"/>
			</g>
			<g>
				
					<rect x="2165.7" y="384.1" transform="matrix(0.5405 -0.8413 0.8413 0.5405 630.0648 2024.1122)" class="st2" width="5" height="102.2"/>
			</g>
			<g>
				
					<rect x="2283.2" y="384.7" transform="matrix(0.5405 -0.8413 0.8413 0.5405 683.6199 2123.2178)" class="st2" width="5" height="102.2"/>
			</g>
			<g>
				
					<rect x="2400.7" y="385.2" transform="matrix(0.5405 -0.8413 0.8413 0.5405 737.1788 2222.302)" class="st2" width="5" height="102.2"/>
			</g>
			<g>
				
					<rect x="2518.2" y="385.7" transform="matrix(0.5405 -0.8413 0.8413 0.5405 790.7309 2321.4194)" class="st2" width="5" height="102.2"/>
			</g>
		</g>
	</g>
	<g>
		<rect x="1799.6" y="1243" class="st29" width="188.6" height="155.5"/>
		<rect x="1893.9" y="1243" class="st13" width="188.6" height="155.5"/>
		<polygon class="st8" points="1799.7,1359.1 1829.6,1359.1 1827,1350.7 1829.6,1344.6 1799.7,1344.6 		"/>
		<polygon class="st9" points="1893.9,1291.1 1923.8,1291.1 1921.2,1282.7 1923.8,1276.7 1893.9,1276.7 		"/>
		<polygon class="st8" points="1893.9,1276.7 1864,1276.7 1866.7,1285.1 1864,1291.1 1893.9,1291.1 		"/>
		<polygon class="st9" points="2082.5,1360.7 2052.6,1360.7 2055.3,1369.1 2052.6,1375.2 2082.5,1375.2 		"/>
		<rect x="2015.9" y="1253.5" class="st6" width="54.3" height="21.1"/>
	</g>
	<g id="P297LW_1_">
		<path class="st24" d="M2414.7,1143.2c0,0-8.9,50.9-18.7,104c-10.6,57.8-22.2,118.2-24.4,118.9c-4.2,1.4-3.9-7.7-6.8-14.8
			c-2.3-5.6-9.4-53.9-7.1-84c0.6-7.3,2.4-98,15-108.7C2385.3,1148,2414.7,1143.2,2414.7,1143.2z"/>
		<path class="st24" d="M2362,1337.9c0,0,2.2,8.3-1,16.5s-3.8,10.5,2,15.1s12.2,11,16.6,9.1c4.4-1.9,1.7-39.2,1.7-39.2L2362,1337.9z
			"/>
		<path class="st8" d="M2374.2,1671.4c5.4-3.3,2.3-28,2.3-28s-25.3-20.2-28.8-4.7s-24,22.4-35.7,24.3c-8.1,1.3-10.6,5.8-11.4,8.4
			L2374.2,1671.4L2374.2,1671.4z"/>
		<path class="st8" d="M2486.5,1671.4c5.4-3.3,2.3-28,2.3-28s-25.3-20.2-28.8-4.7s-24,22.4-35.7,24.3c-8.1,1.3-10.6,5.8-11.4,8.4
			L2486.5,1671.4L2486.5,1671.4z"/>
		<path class="st12" d="M2451.3,1384.6c-9,38-20.3,81.4-24.8,105.9c-0.5,2.8-0.9,5.4-1.2,7.7c-0.3,2.3-0.5,4.3-0.6,5.9
			c-2.4,45.8-38.6,150.7-45.1,153.1c-10,3.8-25.8-4.3-34.1-6.9c-3.4-1.1-5.7-4.6-5-8.1c17.9-82.5,29-200.6,31.4-270.9
			c1.2-35.4,2.8-60.6,2.8-60.6s88.4-23.6,88.9,6.2C2463.9,1328.6,2458.3,1355,2451.3,1384.6z"/>
		<path class="st11" d="M2451.3,1384.6c-9,38-20.3,81.4-24.8,105.9c-0.5,2.8-3.2,26.9-3.5,29.2l-15.5-175.8l21.9,2L2451.3,1384.6z"
			/>
		<path class="st12" d="M2416.5,1327.3l31.2,325.8c0,0,23.1,7.5,43.9,1.7c0,0,12.1-178.1,11-221.7c-1.1-43.5,9.8-116.5-2.5-124.6
			C2487.8,1300.5,2416.5,1327.3,2416.5,1327.3z"/>
		<path class="st8" d="M2499.5,1240.2c0.3,3.7,1.8,73.2,1.9,75.8c0.1,2.9-7.8,8.6-35.5,12.7c-9.9,1.5-21.7,2.5-35.2,2.7
			c-34.6,0.4-47.8-14.2-47.8-14.2c-2.4,0,2.6-16.9,3.4-126.7c-0.6,0-1.2,0.1-1.8-0.1c-12.3-4.8-23.7-14.7-23.7-14.7
			s13.9-38.6,27-58.3c3.2-4.8,11.8-8.6,23.3-11c3-0.7,6.2-1.2,9.6-1.7c15.7-2.1,34.6-2.2,52.1,0.3c3.1,0.4,6.1,0.9,9,1.6
			c13,2.6,24.7,6.9,33,12.9c12.2,8.9,21.3,54.3,21.3,54.3s-11.5,13.1-37.4,19.4C2497.5,1219.4,2498,1222.9,2499.5,1240.2z"/>
		<path class="st12" d="M2374.8,1310.8l10.6-131.5c0.6-7.6,7.1-13.3,14.7-13l71.9,2.8c5.9,0.2,10.7,4.9,11,10.9
			c0.9,17.3,4.2,50.8,16.5,60.2l6.5,95.2l-80.4,72.8c0,0-9.1-53.3-21.7-68.2C2397,1331.7,2374.8,1310.8,2374.8,1310.8z"/>
		<g>
			<path class="st12" d="M2482,1106.6l-8.7,67.2l-9-1.4l8.7-67.3C2476,1105.5,2479,1106,2482,1106.6z"/>
		</g>
		<g>
			<path class="st12" d="M2420.8,1104.7l-11.1,60.3l-0.9,5.1l-1-0.2l-7.9-1.8l11.4-61.7C2414.2,1105.8,2417.5,1105.2,2420.8,1104.7z
				"/>
		</g>
		<path class="st24" d="M2536.2,1245.5c0,0-5.4,16.4-74.8,39.1c0,0-0.8-18.5,3.4-21c13.1-7.7,44.1-30.5,45.2-34.5
			c0.7-2.7-6.4-22.9-15.3-43.2c16.5-1.8,27.1-3.3,39.2-9.8C2538.4,1208,2544.6,1230.3,2536.2,1245.5z"/>
		<path class="st24" d="M2453.5,1264.5c0,0-5.8-4.4-10.2-5.1c-4.4-0.7-11.9-3.5-10.7-0.9c1.2,2.6,9.4,6.8,9.4,6.8L2453.5,1264.5z"/>
		<g>
			<path class="st30" d="M2442.4,1293.7l-22.6,2.8c-2.5,0.3-4.9-1.2-5.6-3.6l-15.5-51.3c-0.9-3.1,1.1-6.2,4.3-6.6l22.6-2.8
				c2.5-0.3,4.9,1.2,5.6,3.6l15.5,51.3C2447.6,1290.2,2445.6,1293.3,2442.4,1293.7z"/>
			<path class="st31" d="M2434.4,1294.7l-22.6,2.8c-2.5,0.3-4.9-1.2-5.6-3.7l-15.5-51.3c-0.9-3.1,1.1-6.2,4.3-6.6l22.6-2.8
				c2.5-0.3,4.9,1.2,5.6,3.7l15.5,51.3C2439.6,1291.2,2437.6,1294.3,2434.4,1294.7z"/>
			<path class="st31" d="M2418.4,1243L2418.4,1243c-0.7,0.1-1.4-0.4-1.6-1l-15.2-45c-0.2-0.6,0.1-1.2,0.8-1.3l0,0
				c0.7-0.1,1.4,0.4,1.6,1l15.2,45C2419.4,1242.3,2419.1,1242.9,2418.4,1243z"/>
		</g>
		<path class="st24" d="M2464.8,1263.6c0,0-4,2.5-6.9,1.7c-2.4-0.6-4.4-0.8-7.2-2.7c-2.9-2-9.3,0.6-11.1,1.9
			c-5.3,3.5-23.1,3.4-23.1,6.9c0,3.5,7.8,13.4,17.1,16.3c9.4,2.9,27.8-3.1,27.8-3.1L2464.8,1263.6z"/>
		<path class="st24" d="M2465.1,1103.4c0.4,10.4-8.9,15.5-22.8,13.6c-13.9-2-14.2-12.8-14.2-12.8l0.3-10.4l0.4-12.3l0.4-11l33.6,4.6
			c-0.1,0.8-0.1,2.8,0,5.3v0C2463.2,1087,2464.1,1097.6,2465.1,1103.4z"/>
		<path class="st25" d="M2462.9,1080.3C2462.9,1080.3,2462.9,1080.3,2462.9,1080.3c-0.3,0.5-8,10.9-34.4,13.5l0.4-12.3
			L2462.9,1080.3L2462.9,1080.3z"/>
		<path class="st24" d="M2422.4,1087.3c0,0,41.3,8.3,46.1-17.5c4.8-25.8,13.4-42.1-12.8-48.6c-26.2-6.4-33.2,2.5-36.9,10.7
			C2415.2,1040.2,2411.8,1084.5,2422.4,1087.3z"/>
		<path class="st30" d="M2466.7,1075.6c0,0,14.4,3.2,15.7-22.9c0.5-10.1,3-45.5-25.8-44.2s-41.9,18-44.5,21
			c-19.6,22.2,28.2,5.7,34.5,10.8c6.4,5.2,0.3,13.6,7.6,16.7c7.3,3,13,3,11.8,9.7C2464.8,1073.2,2466.7,1075.6,2466.7,1075.6z"/>
		<path class="st12" d="M2408.3,1029.9c0,0,15.4,5.4,20.8,5.8c1.6,0.1,25.5,1.8,25.5,1.8l34.9,6.2c0,0,6.8-25.9-10.3-42.2l0,0
			c-0.4-0.4-0.9-0.8-1.3-1.2c-4.6-4-10.8-7.3-19-9.4C2417.1,980.3,2408.4,1028.4,2408.3,1029.9z"/>
		<g>
			<path class="st11" d="M2428.6,1034.9l6.6,0.9c5.2-6.8,24.2-30.5,44.4-34c-0.1-0.2-0.2-0.3-0.3-0.5l0,0c-0.4-0.4-0.6-0.6-1.1-1.3
				c-0.1,0-0.1,0-0.2,0C2452.1,1006.3,2433,1028.9,2428.6,1034.9z"/>
		</g>
		<path class="st12" d="M2454.6,1037.4c0,0,4.5,5.1,5.7,10c1.2,4.9,23.8,7.8,25.4,5.3c1.6-2.5,3.8-9.1,3.8-9.1L2454.6,1037.4z"/>
		<path class="st11" d="M2454.6,1037.4c0,0-41.8,0.8-60.8-9.3c-1.4-0.8-1.2-2.9,0.4-3.3c2.9-0.7,7.8-1.5,15.8-1.8
			C2409.9,1023.1,2424.9,1035.5,2454.6,1037.4z"/>
	</g>
	<rect x="302.7" y="1355" class="st13" width="446.3" height="324.6"/>
	<g>
		<polygon class="st13" points="805.5,987.3 744.6,987.3 744.6,1671.4 847.8,1671.4 847.8,1334 805.5,1160.6 		"/>
		<g>
			<rect x="805.5" y="987.3" class="st17" width="337.3" height="173.3"/>
			<rect x="847.8" y="1334" class="st17" width="337.3" height="337.4"/>
			<polygon class="st32" points="1185.1,1334 847.8,1334 805.5,1160.6 1142.8,1160.6 			"/>
			<g>
				<g>
					<g>
						<polygon class="st13" points="853.4,1195.1 844.5,1195.1 841.2,1182.5 850,1182.5 						"/>
						<polygon class="st13" points="873.4,1195.1 864.6,1195.1 861.2,1182.5 870,1182.5 						"/>
						<polygon class="st13" points="893.5,1195.1 884.7,1195.1 881.3,1182.5 890.1,1182.5 						"/>
						<polygon class="st13" points="913.5,1195.1 904.7,1195.1 901.4,1182.5 910.2,1182.5 						"/>
						<polygon class="st13" points="933.6,1195.1 924.8,1195.1 921.4,1182.5 930.2,1182.5 						"/>
						<polygon class="st13" points="953.7,1195.1 944.9,1195.1 941.5,1182.5 950.3,1182.5 						"/>
					</g>
					<g>
						<polygon class="st13" points="859.7,1218.5 850.8,1218.5 847.5,1206 856.3,1206 						"/>
						<polygon class="st13" points="879.7,1218.5 870.9,1218.5 867.5,1206 876.3,1206 						"/>
						<polygon class="st13" points="899.8,1218.5 891,1218.5 887.6,1206 896.4,1206 						"/>
						<polygon class="st13" points="919.8,1218.5 911,1218.5 907.7,1206 916.5,1206 						"/>
						<polygon class="st13" points="939.9,1218.5 931.1,1218.5 927.7,1206 936.5,1206 						"/>
						<polygon class="st13" points="960,1218.5 951.2,1218.5 947.8,1206 956.6,1206 						"/>
					</g>
				</g>
				<g>
					<g>
						<polygon class="st13" points="866.2,1242.8 857.4,1242.8 854,1230.2 862.8,1230.2 						"/>
						<polygon class="st13" points="886.2,1242.8 877.4,1242.8 874,1230.2 882.9,1230.2 						"/>
						<polygon class="st13" points="906.3,1242.8 897.5,1242.8 894.1,1230.2 902.9,1230.2 						"/>
						<polygon class="st13" points="926.4,1242.8 917.5,1242.8 914.2,1230.2 923,1230.2 						"/>
						<polygon class="st13" points="946.4,1242.8 937.6,1242.8 934.2,1230.2 943.1,1230.2 						"/>
						<polygon class="st13" points="966.5,1242.8 957.7,1242.8 954.3,1230.2 963.1,1230.2 						"/>
					</g>
					<g>
						<polygon class="st13" points="872.5,1266.2 863.7,1266.2 860.3,1253.7 869.1,1253.7 						"/>
						<polygon class="st13" points="892.5,1266.2 883.7,1266.2 880.3,1253.7 889.2,1253.7 						"/>
						<polygon class="st13" points="912.6,1266.2 903.8,1266.2 900.4,1253.7 909.2,1253.7 						"/>
						<polygon class="st13" points="932.7,1266.2 923.8,1266.2 920.5,1253.7 929.3,1253.7 						"/>
						<polygon class="st13" points="952.7,1266.2 943.9,1266.2 940.5,1253.7 949.4,1253.7 						"/>
						<polygon class="st13" points="972.8,1266.2 964,1266.2 960.6,1253.7 969.4,1253.7 						"/>
					</g>
				</g>
			</g>
			<g>
				<g>
					<g>
						<polygon class="st13" points="993,1195.1 984.2,1195.1 980.8,1182.5 989.6,1182.5 						"/>
						<polygon class="st13" points="1013.1,1195.1 1004.2,1195.1 1000.9,1182.5 1009.7,1182.5 						"/>
						<polygon class="st13" points="1033.1,1195.1 1024.3,1195.1 1020.9,1182.5 1029.8,1182.5 						"/>
						<polygon class="st13" points="1053.2,1195.1 1044.4,1195.1 1041,1182.5 1049.8,1182.5 						"/>
						<polygon class="st13" points="1073.3,1195.1 1064.4,1195.1 1061.1,1182.5 1069.9,1182.5 						"/>
						<polygon class="st13" points="1093.3,1195.1 1084.5,1195.1 1081.1,1182.5 1089.9,1182.5 						"/>
					</g>
					<g>
						<polygon class="st13" points="999.3,1218.5 990.5,1218.5 987.1,1206 995.9,1206 						"/>
						<polygon class="st13" points="1019.4,1218.5 1010.5,1218.5 1007.2,1206 1016,1206 						"/>
						<polygon class="st13" points="1039.4,1218.5 1030.6,1218.5 1027.2,1206 1036.1,1206 						"/>
						<polygon class="st13" points="1059.5,1218.5 1050.7,1218.5 1047.3,1206 1056.1,1206 						"/>
						<polygon class="st13" points="1079.6,1218.5 1070.7,1218.5 1067.4,1206 1076.2,1206 						"/>
						<polygon class="st13" points="1099.6,1218.5 1090.8,1218.5 1087.4,1206 1096.2,1206 						"/>
					</g>
				</g>
				<g>
					<g>
						<polygon class="st13" points="1005.8,1242.8 997,1242.8 993.6,1230.2 1002.5,1230.2 						"/>
						<polygon class="st13" points="1025.9,1242.8 1017.1,1242.8 1013.7,1230.2 1022.5,1230.2 						"/>
						<polygon class="st13" points="1045.9,1242.8 1037.1,1242.8 1033.8,1230.2 1042.6,1230.2 						"/>
						<polygon class="st13" points="1066,1242.8 1057.2,1242.8 1053.8,1230.2 1062.6,1230.2 						"/>
						<polygon class="st13" points="1086.1,1242.8 1077.3,1242.8 1073.9,1230.2 1082.7,1230.2 						"/>
						<polygon class="st13" points="1106.2,1242.8 1097.3,1242.8 1093.9,1230.2 1102.8,1230.2 						"/>
					</g>
					<g>
						<polygon class="st13" points="1012.1,1266.2 1003.3,1266.2 999.9,1253.7 1008.7,1253.7 						"/>
						<polygon class="st13" points="1032.2,1266.2 1023.4,1266.2 1020,1253.7 1028.8,1253.7 						"/>
						<polygon class="st13" points="1052.2,1266.2 1043.4,1266.2 1040.1,1253.7 1048.9,1253.7 						"/>
						<polygon class="st13" points="1072.3,1266.2 1063.5,1266.2 1060.1,1253.7 1068.9,1253.7 						"/>
						<polygon class="st13" points="1092.4,1266.2 1083.6,1266.2 1080.2,1253.7 1089,1253.7 						"/>
						<polygon class="st13" points="1112.4,1266.2 1103.6,1266.2 1100.2,1253.7 1109.1,1253.7 						"/>
					</g>
				</g>
			</g>
			<rect x="831.3" y="1042.7" class="st10" width="125.2" height="100.9"/>
			<rect x="947.8" y="1042.7" class="st33" width="9" height="100.9"/>
			<g>
				<path class="st13" d="M1173.2,1636.9H871.5v-124.1h301.7V1636.9z M873.5,1634.9h297.8v-120.1H873.5V1634.9z"/>
			</g>
			<path class="st6" d="M1033.5,1016.3c0,3.8-2.1,6.8-4.8,6.8s-4.8-3-4.8-6.8s2.1-6.8,4.8-6.8
				C1031.4,1009.5,1033.5,1012.5,1033.5,1016.3z"/>
			<path class="st12" d="M1055.9,1016.3c0,3.8-2.1,6.8-4.8,6.8s-4.8-3-4.8-6.8s2.1-6.8,4.8-6.8
				C1053.7,1009.5,1055.9,1012.5,1055.9,1016.3z"/>
			<path class="st33" d="M1078.2,1016.3c0,3.8-2.1,6.8-4.8,6.8s-4.8-3-4.8-6.8s2.1-6.8,4.8-6.8
				C1076.1,1009.5,1078.2,1012.5,1078.2,1016.3z"/>
			<path class="st6" d="M1100.6,1016.3c0,3.8-2.1,6.8-4.8,6.8s-4.8-3-4.8-6.8s2.1-6.8,4.8-6.8S1100.6,1012.5,1100.6,1016.3z"/>
			<path class="st12" d="M1123,1016.3c0,3.8-2.1,6.8-4.8,6.8s-4.8-3-4.8-6.8s2.1-6.8,4.8-6.8C1120.8,1009.5,1123,1012.5,1123,1016.3
				z"/>
			<g>
				<path class="st13" d="M1123.9,1125.1h-99.1v-83.4h99.1V1125.1z M1026.9,1123.1h95.1v-79.5h-95.1V1123.1z"/>
			</g>
			<rect x="865.7" y="1053.4" class="st34" width="15.3" height="2.8"/>
			<g>
				<rect x="836" y="1053.4" class="st34" width="24.1" height="2.8"/>
				<rect x="836" y="1061" class="st34" width="36.5" height="2.8"/>
				<rect x="877.4" y="1061" class="st34" width="24.2" height="2.8"/>
				<rect x="884.3" y="1053.4" class="st34" width="26.4" height="2.8"/>
			</g>
			<g>
				<rect x="836" y="1074" class="st34" width="24.1" height="2.8"/>
				<rect x="836" y="1081.5" class="st34" width="36.5" height="2.8"/>
				<rect x="877.4" y="1081.5" class="st34" width="24.2" height="2.8"/>
				<rect x="865.7" y="1074" class="st34" width="15.3" height="2.8"/>
				<rect x="884.3" y="1074" class="st34" width="26.4" height="2.8"/>
			</g>
			<g>
				<rect x="836" y="1096.6" class="st34" width="24.1" height="2.8"/>
				<rect x="836" y="1104.1" class="st34" width="36.5" height="2.8"/>
				<rect x="877.4" y="1104.1" class="st34" width="24.2" height="2.8"/>
				<rect x="865.7" y="1096.6" class="st34" width="15.3" height="2.8"/>
				<rect x="884.3" y="1096.6" class="st34" width="26.4" height="2.8"/>
			</g>
			<g>
				<rect x="836" y="1118.4" class="st34" width="24.1" height="2.8"/>
				<rect x="836" y="1125.9" class="st34" width="36.5" height="2.8"/>
				<rect x="877.4" y="1125.9" class="st34" width="24.2" height="2.8"/>
				<rect x="865.7" y="1118.4" class="st34" width="15.3" height="2.8"/>
				<rect x="884.3" y="1118.4" class="st34" width="26.4" height="2.8"/>
			</g>
		</g>
	</g>
	<rect x="290.9" y="1355" class="st17" width="556.9" height="19.8"/>
	<g>
		<g>
			<g>
				<path class="st12" d="M418.8,1218.9L408.1,1346c0,0-1.1,7.7,4.6,7.7c9.4,0,46.9,0,46.9,0s-7.1-1.6-7-5.2
					c0.1-4.2,12.5-130.8,12.5-130.8L418.8,1218.9z"/>
				<path class="st11" d="M462.6,1351.4c-1.9,0-37.7,0.1-46.8,0c-4-0.1-4.7-3.6-4.7-5.8c0-1.1,0.1-1.9,0.1-1.9l0.3-3.3l0.7-8.4
					l0.6-7.4l0.8-9.6l0.7-8.1l7.6-90.3l46.3-1.2c0,0-5.2,53-8.9,91.5c-0.4,4.3-0.8,8.4-1.2,12.3c-0.1,1.2-0.2,2.4-0.3,3.6
					c-0.3,3.7-0.7,7-0.9,10c-0.1,1.6-0.3,3-0.4,4.3c-0.5,5.2-0.8,8.5-0.8,9.2c0,0.4,0,0.7,0.1,1
					C456.6,1351.3,462,1351.4,462.6,1351.4z"/>
				<polygon class="st12" points="306.3,1149.7 332.3,1254.3 335.9,1268.6 348,1317.4 573.4,1317.4 528.7,1149.7 				"/>
				<polygon class="st11" points="306.3,1149.7 302.7,1150.9 343.2,1321 348,1317.4 				"/>
				<polygon class="st11" points="343.2,1321 567.2,1321 573.4,1317.4 348,1317.4 				"/>
				<rect x="421.9" y="1351.5" class="st35" width="48.5" height="2.3"/>
				<polygon class="st35" points="562.5,1286.5 525.9,1151.9 305.9,1151.9 305.9,1149.7 528.7,1149.7 565.1,1286.2 				"/>
				<polygon class="st11" points="458,1321 457.8,1322.8 412.2,1332 412.8,1324.5 413.1,1321 				"/>
				<path class="st36" d="M462.6,1351.4c-1.9,0-37.7,0.1-46.8,0c-4-0.1-4.7-3.6-4.7-5.8l45.4-8.5c-0.5,5.2-0.8,8.5-0.8,9.2
					c0,0.4,0,0.7,0.1,1C456.6,1351.3,462,1351.4,462.6,1351.4z"/>
				<polygon class="st36" points="447,1283.4 348,1317.4 335.9,1268.6 				"/>
				<polygon class="st13" points="306.3,1149.7 528.7,1149.7 564.8,1284.4 338.7,1284.4 				"/>
			</g>
			<polygon class="st37" points="554.3,1278.6 346,1278.6 322.5,1184.7 320.6,1177.4 319.1,1171.3 315.5,1156.9 520.7,1156.9 
				524.7,1171.3 526.4,1177.4 528.4,1184.7 			"/>
			<g>
				<polygon class="st38" points="500.7,1163.5 491.3,1163.6 491.1,1162.8 500.5,1162.7 				"/>
				<polygon class="st38" points="498.6,1165.7 491.9,1165.8 491.7,1165 498.4,1164.9 				"/>
				<polygon class="st38" points="506.4,1165.6 499.6,1165.7 499.4,1164.9 506.1,1164.8 				"/>
				<polygon class="st38" points="511.9,1165.5 507.8,1165.6 507.6,1164.8 511.7,1164.7 				"/>
				<polygon class="st38" points="508.2,1163.4 502.4,1163.4 502.2,1162.6 508,1162.6 				"/>
				<polygon class="st38" points="516.1,1163.2 510.3,1163.3 510.1,1162.5 515.9,1162.4 				"/>
			</g>
			<g>
				<polygon class="st38" points="525.7,1270.2 516.3,1270.4 516.1,1269.6 525.5,1269.4 				"/>
				<polygon class="st38" points="523.6,1272.5 516.9,1272.6 516.7,1271.8 523.4,1271.7 				"/>
				<polygon class="st38" points="531.3,1272.4 524.6,1272.5 524.4,1271.7 531.1,1271.6 				"/>
				<polygon class="st38" points="536.9,1272.3 532.7,1272.4 532.5,1271.5 536.7,1271.5 				"/>
				<polygon class="st38" points="533.2,1270.1 527.4,1270.2 527.2,1269.4 533,1269.3 				"/>
				<polygon class="st38" points="541.1,1270 535.3,1270.1 535.1,1269.3 540.8,1269.2 				"/>
			</g>
			<g>
				<g>
					<polygon class="st38" points="354.4,1169.7 332.4,1169.6 332,1167.8 354,1167.8 					"/>
					<polygon class="st38" points="349.4,1174.7 333.6,1174.6 333.2,1172.8 349,1172.8 					"/>
					<polygon class="st38" points="367.5,1174.7 351.8,1174.7 351.3,1172.8 367.1,1172.9 					"/>
					<polygon class="st38" points="380.6,1174.7 370.9,1174.7 370.4,1172.9 380.2,1172.9 					"/>
					<polygon class="st38" points="372,1169.7 358.5,1169.7 358,1167.8 371.6,1167.9 					"/>
					<polygon class="st38" points="390.5,1169.8 377,1169.7 376.5,1167.9 390.1,1167.9 					"/>
				</g>
				<g>
					<g>
						<polygon class="st38" points="354.8,1185.9 336.3,1185.9 335.8,1184 354.4,1184.1 						"/>
						<polygon class="st38" points="368.5,1185.9 358.2,1185.9 357.7,1184.1 368.1,1184.1 						"/>
						<polygon class="st38" points="389.1,1186 373.2,1185.9 372.8,1184.1 388.7,1184.1 						"/>
					</g>
					<g>
						<polygon class="st38" points="359.4,1190.8 337.4,1190.7 337,1188.9 358.9,1188.9 						"/>
						<polygon class="st38" points="354.4,1195.7 338.6,1195.7 338.1,1193.9 353.9,1193.9 						"/>
						<polygon class="st38" points="372.5,1195.8 356.7,1195.7 356.3,1193.9 372.1,1193.9 						"/>
						<polygon class="st38" points="385.6,1195.8 375.8,1195.8 375.4,1193.9 385.2,1194 						"/>
						<polygon class="st38" points="377,1190.8 363.4,1190.8 363,1188.9 376.5,1189 						"/>
						<polygon class="st38" points="395.5,1190.8 381.9,1190.8 381.5,1189 395,1189 						"/>
					</g>
				</g>
				<g>
					<g>
						<polygon class="st39" points="360.2,1209 341.7,1208.9 341.3,1207.1 359.8,1207.1 						"/>
						<polygon class="st39" points="374,1209 363.6,1209 363.2,1207.2 373.5,1207.2 						"/>
						<polygon class="st39" points="394.5,1209.1 378.7,1209 378.2,1207.2 394.1,1207.2 						"/>
					</g>
					<g>
						<polygon class="st39" points="364.8,1213.8 342.8,1213.8 342.4,1211.9 364.4,1212 						"/>
						<polygon class="st39" points="359.8,1218.8 344,1218.8 343.6,1216.9 359.4,1217 						"/>
						<polygon class="st39" points="377.9,1218.9 362.1,1218.8 361.7,1217 377.5,1217 						"/>
						<polygon class="st39" points="391,1218.9 381.3,1218.9 380.8,1217 390.6,1217.1 						"/>
						<polygon class="st39" points="382.4,1213.9 368.9,1213.8 368.4,1212 382,1212 						"/>
						<polygon class="st39" points="400.9,1213.9 387.4,1213.9 386.9,1212.1 400.5,1212.1 						"/>
					</g>
				</g>
				<g>
					<g>
						<polygon class="st38" points="365.4,1231.1 346.9,1231 346.5,1229.2 365,1229.2 						"/>
						<polygon class="st38" points="379.2,1231.1 368.8,1231.1 368.4,1229.2 378.7,1229.2 						"/>
						<polygon class="st38" points="399.7,1231.1 383.9,1231.1 383.4,1229.3 399.3,1229.3 						"/>
					</g>
					<g>
						<polygon class="st38" points="370,1235.9 348,1235.9 347.6,1234 369.5,1234.1 						"/>
						<polygon class="st38" points="365,1240.9 349.2,1240.8 348.8,1239 364.6,1239.1 						"/>
						<polygon class="st38" points="383.1,1240.9 367.3,1240.9 366.9,1239.1 382.7,1239.1 						"/>
						<polygon class="st38" points="396.2,1241 386.5,1240.9 386,1239.1 395.8,1239.1 						"/>
						<polygon class="st38" points="387.6,1236 374.1,1235.9 373.6,1234.1 387.2,1234.1 						"/>
						<polygon class="st38" points="406.1,1236 392.5,1236 392.1,1234.1 405.7,1234.2 						"/>
					</g>
				</g>
				<g>
					<g>
						<polygon class="st39" points="370.8,1253.7 352.2,1253.7 351.8,1251.8 370.3,1251.9 						"/>
						<polygon class="st39" points="384.5,1253.8 374.1,1253.7 373.7,1251.9 384.1,1251.9 						"/>
						<polygon class="st39" points="405.1,1253.8 389.2,1253.8 388.8,1251.9 404.6,1252 						"/>
					</g>
					<g>
						<polygon class="st39" points="375.3,1258.6 353.4,1258.5 352.9,1256.7 374.9,1256.7 						"/>
						<polygon class="st39" points="370.3,1263.6 354.5,1263.5 354.1,1261.7 369.9,1261.7 						"/>
						<polygon class="st39" points="388.5,1263.6 372.7,1263.6 372.2,1261.7 388,1261.8 						"/>
						<polygon class="st39" points="401.6,1263.6 391.8,1263.6 391.4,1261.8 401.1,1261.8 						"/>
						<polygon class="st39" points="392.9,1258.6 379.4,1258.6 379,1256.8 392.5,1256.8 						"/>
						<polygon class="st39" points="411.4,1258.7 397.9,1258.6 397.5,1256.8 411,1256.8 						"/>
					</g>
				</g>
				<g>
					<polygon class="st35" points="450.7,1171.2 428.7,1171.2 428.3,1169.3 450.2,1169.4 					"/>
					<polygon class="st35" points="445.7,1176.2 429.9,1176.2 429.5,1174.3 445.2,1174.3 					"/>
					<polygon class="st35" points="463.8,1176.2 448,1176.2 447.6,1174.4 463.4,1174.4 					"/>
					<polygon class="st35" points="476.9,1176.3 467.1,1176.2 466.7,1174.4 476.5,1174.4 					"/>
					<polygon class="st35" points="468.3,1171.3 454.8,1171.2 454.3,1169.4 467.9,1169.4 					"/>
					<polygon class="st35" points="486.8,1171.3 473.2,1171.3 472.8,1169.4 486.4,1169.5 					"/>
				</g>
				<g>
					<g>
						<polygon class="st35" points="451.1,1187.4 432.5,1187.4 432.1,1185.6 450.6,1185.6 						"/>
						<polygon class="st35" points="464.8,1187.5 454.5,1187.4 454,1185.6 464.4,1185.6 						"/>
						<polygon class="st35" points="485.4,1187.5 469.5,1187.5 469.1,1185.7 485,1185.7 						"/>
					</g>
					<g>
						<polygon class="st35" points="455.6,1192.3 433.7,1192.2 433.2,1190.4 455.2,1190.4 						"/>
						<polygon class="st35" points="450.6,1197.3 434.9,1197.2 434.4,1195.4 450.2,1195.4 						"/>
						<polygon class="st35" points="468.8,1197.3 453,1197.3 452.6,1195.4 468.3,1195.5 						"/>
						<polygon class="st35" points="481.9,1197.3 472.1,1197.3 471.7,1195.5 481.5,1195.5 						"/>
						<polygon class="st35" points="473.2,1192.3 459.7,1192.3 459.3,1190.5 472.8,1190.5 						"/>
						<polygon class="st35" points="491.8,1192.4 478.2,1192.3 477.8,1190.5 491.3,1190.5 						"/>
					</g>
				</g>
				<g>
					<g>
						<polygon class="st38" points="456.5,1210.5 438,1210.5 437.5,1208.6 456.1,1208.7 						"/>
						<polygon class="st38" points="470.2,1210.6 459.9,1210.5 459.5,1208.7 469.8,1208.7 						"/>
						<polygon class="st38" points="490.8,1210.6 474.9,1210.6 474.5,1208.7 490.4,1208.8 						"/>
					</g>
					<g>
						<polygon class="st38" points="461.1,1215.4 439.1,1215.3 438.7,1213.5 460.6,1213.5 						"/>
						<polygon class="st38" points="456.1,1220.4 440.3,1220.3 439.9,1218.5 455.6,1218.5 						"/>
						<polygon class="st38" points="474.2,1220.4 458.4,1220.4 458,1218.5 473.8,1218.6 						"/>
						<polygon class="st38" points="487.3,1220.4 477.5,1220.4 477.1,1218.6 486.9,1218.6 						"/>
						<polygon class="st38" points="478.7,1215.4 465.1,1215.4 464.7,1213.5 478.2,1213.6 						"/>
						<polygon class="st38" points="497.2,1215.5 483.6,1215.4 483.2,1213.6 496.7,1213.6 						"/>
					</g>
				</g>
				<g>
					<g>
						<polygon class="st38" points="461.7,1232.6 443.2,1232.6 442.7,1230.7 461.3,1230.8 						"/>
						<polygon class="st38" points="475.4,1232.6 465.1,1232.6 464.6,1230.8 475,1230.8 						"/>
						<polygon class="st38" points="496,1232.7 480.1,1232.6 479.7,1230.8 495.6,1230.8 						"/>
					</g>
					<g>
						<polygon class="st38" points="466.3,1237.4 444.3,1237.4 443.9,1235.6 465.8,1235.6 						"/>
						<polygon class="st38" points="461.3,1242.4 445.5,1242.4 445.1,1240.6 460.8,1240.6 						"/>
						<polygon class="st38" points="479.4,1242.5 463.6,1242.4 463.2,1240.6 479,1240.6 						"/>
						<polygon class="st38" points="492.5,1242.5 482.7,1242.5 482.3,1240.6 492.1,1240.7 						"/>
						<polygon class="st38" points="483.9,1237.5 470.3,1237.5 469.9,1235.6 483.4,1235.7 						"/>
						<polygon class="st38" points="502.4,1237.5 488.8,1237.5 488.4,1235.7 501.9,1235.7 						"/>
					</g>
				</g>
				<g>
					<g>
						<polygon class="st38" points="467,1255.3 448.5,1255.2 448.1,1253.4 466.6,1253.4 						"/>
						<polygon class="st38" points="480.8,1255.3 470.4,1255.3 470,1253.4 480.3,1253.5 						"/>
						<polygon class="st38" points="501.4,1255.4 485.5,1255.3 485,1253.5 500.9,1253.5 						"/>
					</g>
					<g>
						<polygon class="st38" points="471.6,1260.1 449.6,1260.1 449.2,1258.2 471.2,1258.3 						"/>
						<polygon class="st38" points="466.6,1265.1 450.8,1265.1 450.4,1263.2 466.2,1263.3 						"/>
						<polygon class="st38" points="484.7,1265.2 469,1265.1 468.5,1263.3 484.3,1263.3 						"/>
						<polygon class="st38" points="497.9,1265.2 488.1,1265.2 487.6,1263.3 497.4,1263.3 						"/>
						<polygon class="st38" points="489.2,1260.2 475.7,1260.1 475.2,1258.3 488.8,1258.3 						"/>
						<polygon class="st38" points="507.7,1260.2 494.2,1260.2 493.7,1258.3 507.3,1258.4 						"/>
					</g>
				</g>
			</g>
		</g>
		<g>
			<path class="st40" d="M568.4,1641.2c0,0-2,31.3-8.1,31.7c-0.8,0.1-30.7,0-30.7,0l-38.1-0.3c0,0,0.3-9.2,11.4-11.1
				c11.2-1.9,29.8-9.7,36.6-24.4C546.7,1621.6,568.4,1641.2,568.4,1641.2z"/>
			<path class="st39" d="M677.6,1384c1.5,1.2,40.3,43.3,37.1,75.7c-0.9,9.5-9.1,16.6-18.7,16.6h-47.3c0,0-48.3,8.6-49.4,19.1
				s-11,66.7-30.6,146.6c0,0-14.4,5-23.2,1.4c-11.6-4.7-13.2-9.7-13.2-9.7s11.7-179,20.9-191.6c9.2-12.6,104.2-50.1,134.9-53.8
				C718.8,1384.7,677.6,1384,677.6,1384z"/>
			<path class="st24" d="M403.1,1339.4c0,0-27.5-6.4-34.5,0c-7,6.4-9.3,15.7-9.3,15.7h43.7L403.1,1339.4L403.1,1339.4z"/>
			<path class="st39" d="M501.6,1641.2c0,0-2,31.3-8.1,31.7c-0.8,0.1-30.7,0-30.7,0l-38.1-0.3c0,0,0.3-9.2,11.4-11.1
				c11.1-1.9,29.8-9.7,36.6-24.4C479.9,1621.6,501.6,1641.2,501.6,1641.2z"/>
			<path class="st10" d="M713.5,1384c1.1,0.9,9.5,23.6,15.1,49.2c4.8,22.1-12,43-34.6,43H583.9c0,0-48.3,8.6-49.4,19.1
				s-11,66.7-30.6,146.6c0,0-14.5,3.8-25.8-1c-6-2.6-10.8-8.7-10.8-8.7s11.8-177.5,21-190.1c9.2-12.6,104.1-50.1,134.9-53.8
				C653.9,1384.7,713.5,1384,713.5,1384z"/>
			<path class="st24" d="M652.5,1224l-17,16.3l-29,0c0-2.3,0.1-12.1,0.2-20.9c0-0.5,0-1,0-1.6c0-2,0-3.8,0.1-5.6
				c0.1-4.9,0.1-8.4,0.1-8.4l7.5-5.1l16.6-11.3l9-6.1c0,0.2,0.7,8.2,0.8,9.3C642.6,1211.5,652.5,1224,652.5,1224z"/>
			<path class="st39" d="M610.3,1221.1c0.5-0.2,31.9-14.3,35.6-13.1c3.7,1.2,8.2,12.4,8.2,12.4l-55.3,12.5
				C598.9,1232.9,603.2,1224,610.3,1221.1z"/>
			<path class="st8" d="M746.1,1315.1c-6-36.9-31.2-64.5-42-74.8c-7.2-10.9-49.9-19.9-49.9-19.9s-35.3,8-55.3,12.5
				c0,0-31.2,3.4-48.7,32.4c-10.9,18-42,59.1-62.4,60.3c-20.4,1.3-84.6,13.7-84.6,13.7v15.8l97.8,2.7c1.2,0,2.4-0.1,3.6-0.3
				c8.4-1.6,44.5-8.8,62.5-18.1c2.9,46.2,6.2,116.8,22.4,128c17.1,11.8,137.1,13.4,149.9-4.6c6.5-9.2-1.5-64-11.4-116.8
				C740.2,1340.2,748.6,1330.6,746.1,1315.1z"/>
			<path class="st41" d="M635.2,1197.2l-1.5,0.9c0,0-13.7,9.8-27,14.2c0.1-4.9,0.1-8.4,0.1-8.4l7.5-5.1L635.2,1197.2z"/>
			<path class="st24" d="M596.7,1204.2c0,0,44.6,5.3,47.5-22.6s10.5-45.9-17.8-50.5c-28.4-4.6-35,5.5-38.2,14.6
				C584.9,1154.8,585.1,1202.2,596.7,1204.2z"/>
			<path class="st39" d="M589.3,1142.9c0,0,8.4,30.2,14.5,27.7c6.1-2.5,11.7-4.6,12.5,4.8c0.8,9.4-6,21.8,13.9,19.8
				s38.6-57.8,31.4-66.3C640.9,1104.2,560.6,1113.5,589.3,1142.9z"/>
		</g>
		<g>
			<path class="st42" d="M557.7,1482.3h220.8c8.4,0,15.2-6.8,15.2-15.2v-9.9h-236V1482.3z"/>
			<path class="st12" d="M531.2,1482.3h167c6.2,0,11.2-5,11.2-11.2v-2.6c0-6.2-5-11.2-11.2-11.2h-167c-6.2,0-11.2,5-11.2,11.2v2.6
				C520,1477.3,525,1482.3,531.2,1482.3z"/>
			<g>
				<polygon class="st10" points="670.3,1663.6 684.5,1663.6 688.5,1482.3 666.7,1482.3 				"/>
				<polygon class="st10" points="608.4,1663.6 746.9,1663.6 746.9,1651 676.3,1644.7 608.4,1651 				"/>
				<ellipse class="st10" cx="749" cy="1661.5" rx="11.4" ry="11.4"/>
				<path class="st10" d="M621.8,1661.6c0-6.3-5.1-11.4-11.4-11.4c-6.3,0-11.4,5.1-11.4,11.4s5.1,11.4,11.4,11.4
					C616.7,1673,621.8,1667.9,621.8,1661.6z"/>
				<path class="st10" d="M613.3,1494.2h128.6c6.6,0,11.9-5.3,11.9-11.9l0,0H601.4l0,0C601.4,1488.9,606.8,1494.2,613.3,1494.2z"/>
			</g>
			<path class="st12" d="M771.8,1482.3c6,0,10.8-4.8,10.8-10.8v-166.9c0-31.3-20.5-56.6-45.7-56.6H633.7
				c-25.2,0-45.7,25.3-45.7,56.6v177.7H771.8z"/>
			<path class="st11" d="M773.9,1482.3c10.9,0,19.8-8.8,19.8-19.8v-157.9c0-31.3-20.5-56.6-45.7-56.6H644.7
				c-25.2,0-45.7,25.3-45.7,56.6v177.7H773.9z"/>
		</g>
	</g>
	<g>
		<rect x="2735.7" y="1551.1" class="st43" width="145.7" height="120.2"/>
		<rect x="2808.6" y="1551.1" class="st13" width="145.7" height="120.2"/>
		<polygon class="st44" points="2735.8,1640.8 2758.9,1640.8 2756.9,1634.3 2758.9,1629.6 2735.8,1629.6 		"/>
		<polygon class="st43" points="2808.6,1588.3 2831.7,1588.3 2829.7,1581.8 2831.7,1577.1 2808.6,1577.1 		"/>
		<polygon class="st44" points="2808.6,1577.1 2785.5,1577.1 2787.6,1583.6 2785.5,1588.3 2808.6,1588.3 		"/>
		<polygon class="st43" points="2954.4,1642.1 2931.3,1642.1 2933.3,1648.6 2931.3,1653.2 2954.4,1653.2 		"/>
		<rect x="2902.9" y="1559.2" class="st6" width="41.9" height="16.3"/>
	</g>
	<g>
		<rect x="2538.2" y="1551" class="st43" width="146" height="120.4"/>
		<rect x="2611.3" y="1551" class="st3" width="146" height="120.4"/>
		<polygon class="st8" points="2538.3,1640.8 2561.5,1640.8 2559.4,1634.3 2561.5,1629.7 2538.3,1629.7 		"/>
		<polygon class="st9" points="2611.3,1588.2 2634.4,1588.2 2632.4,1581.7 2634.4,1577.1 2611.3,1577.1 		"/>
		<polygon class="st8" points="2611.3,1577.1 2588.1,1577.1 2590.2,1583.6 2588.1,1588.2 2611.3,1588.2 		"/>
		<polygon class="st9" points="2757.3,1642.1 2734.2,1642.1 2736.2,1648.6 2734.2,1653.3 2757.3,1653.3 		"/>
		<rect x="2705.7" y="1559.1" class="st6" width="42" height="16.3"/>
	</g>
	<g>
		<rect x="2613.9" y="1438.2" class="st11" width="136.9" height="112.9"/>
		<rect x="2682.4" y="1438.2" class="st12" width="136.9" height="112.9"/>
		<polygon class="st12" points="2614,1522.4 2635.7,1522.4 2633.8,1516.3 2635.7,1512 2614,1512 		"/>
		<polygon class="st12" points="2682.4,1473.1 2704.1,1473.1 2702.2,1467 2704.1,1462.7 2682.4,1462.7 		"/>
		<polygon class="st12" points="2682.4,1462.7 2660.7,1462.7 2662.6,1468.8 2660.7,1473.1 2682.4,1473.1 		"/>
		<polygon class="st12" points="2819.3,1523.7 2797.6,1523.7 2799.5,1529.8 2797.6,1534.1 2819.3,1534.1 		"/>
		<rect x="2770.9" y="1445.8" class="st6" width="39.4" height="15.3"/>
	</g>
	<g>
		<g>
			<rect x="966.5" y="1074.3" class="st13" width="6.1" height="6.1"/>
			<rect x="982.3" y="1074.3" class="st13" width="6.1" height="6.1"/>
			<rect x="998.1" y="1074.3" class="st13" width="6.1" height="6.1"/>
		</g>
		<g>
			<rect x="966.5" y="1087.9" class="st13" width="6.1" height="6.1"/>
			<rect x="982.3" y="1087.9" class="st13" width="6.1" height="6.1"/>
			<rect x="998.1" y="1087.9" class="st13" width="6.1" height="6.1"/>
		</g>
		<g>
			<rect x="966.5" y="1102.9" class="st13" width="6.1" height="6.1"/>
			<rect x="982.3" y="1102.9" class="st13" width="6.1" height="6.1"/>
			<rect x="998.1" y="1102.9" class="st13" width="6.1" height="6.1"/>
		</g>
	</g>
	<g>
		<g>
			<path class="st30" d="M1029.9,1241.1l9.8-1.5c1.1-0.2,1.6-1.3,1.1-2.7l-9.6-29.2c-0.6-1.8-2.4-3.2-3.8-3l-9.8,1.5
				c-1.1,0.2-1.6,1.3-1.1,2.7l9.6,29.2C1026.7,1239.8,1028.5,1241.3,1029.9,1241.1z"/>
			<path class="st31" d="M1033.4,1240.5l9.8-1.5c1.1-0.2,1.6-1.3,1.1-2.7l-9.6-29.2c-0.6-1.8-2.4-3.2-3.8-3l-9.8,1.5
				c-1.1,0.2-1.6,1.3-1.1,2.7l9.6,29.2C1030.2,1239.3,1032,1240.7,1033.4,1240.5z"/>
			<path class="st31" d="M1023.9,1211.1L1023.9,1211.1c0.3,0,0.4-0.4,0.3-0.8l-7.8-25.8c-0.1-0.4-0.4-0.6-0.7-0.6l0,0
				c-0.3,0-0.4,0.4-0.3,0.8l7.8,25.8C1023.3,1210.8,1023.6,1211.1,1023.9,1211.1z"/>
		</g>
		<path class="st24" d="M1021.3,1113c0,0-7.1-12.1-12.8-16.6c-5.7-4.5-20.6-5.7-21.1-4.6c-1.8,3.6,5.9,8.7,7.5,11.9
			c1.6,3.3,0.9,7.9,8.5,11.8c7.8,4,12.4,6.6,12.4,6.6L1021.3,1113z"/>
		<path class="st30" d="M1015.3,1111.3c3.7-5.7,4.8-6,4.8-6s60.5,24.1,66.3,26.2c5.8,2,92.1,7.1,92.1,7.1l26.1,57.3
			c0,0-115-26.2-129.6-31.6c-24-8.9-62.5-43.8-62.5-43.8S1012.4,1115.8,1015.3,1111.3z"/>
		<path class="st39" d="M1165.6,1646.8c0,0-1.3,21.2-5.3,26.2h-60.7c0.4-2.1,2.1-7.3,9.7-8.7c9.6-1.7,25.6-8.4,31.4-21.1
			C1146.9,1629.9,1165.6,1646.8,1165.6,1646.8z"/>
		<path class="st39" d="M1273.3,1643.8c0,0,3.8,27.6-1.4,28.1c-0.7,0.1-23.1,0.1-31.8,0c-10.9-0.1-28.3,0.1-28.3,0.1
			c-2.2,0.1-3.7-2.3-2.6-4.3c1.3-2.1,3.7-4.4,8.2-5.3c9.6-1.8,25.5-8.9,31.1-21.6C1254.3,1627.3,1273.3,1643.8,1273.3,1643.8z"/>
		<path class="st11" d="M1137,1364.1c0,0,15.3,53.4,59,146.1s47.1,135,47.1,135l30.1-1.4c0,0-2.8-110.4-23.5-157.2
			s-24.9-174.8-24.9-174.8L1137,1364.1z"/>
		<path class="st12" d="M1112.5,1318.2c0,0-1.2,82.7,13.1,184.2c14.3,101.5,9.5,144.6,9.5,144.6l34.3,1.1c0,0,20.5-101.6,14.6-152.4
			c-5.9-50.8,28-174.4,28-174.4L1112.5,1318.2z"/>
		<path class="st24" d="M1180.2,1124.7l-16.2,12l-23.4-4.9c0.3-2.1,1.9-11,3.3-18.9c0.1-0.5,0.2-0.9,0.2-1.4
			c1.2-6.8,2.2-12.7,2.2-12.7l21.8-10.9l8.1-4.1c0,0.1-0.6,7.6-0.7,8.6C1174.1,1111.6,1180.2,1124.7,1180.2,1124.7z"/>
		<path class="st39" d="M1142.3,1118.6c0.5-0.2,31.8-9.4,35.2-8.3s5.4,7.7,5.4,7.7l-48.3,13.8
			C1134.6,1131.7,1135.7,1121.4,1142.3,1118.6z"/>
		<path class="st8" d="M1226.4,1328.4c-5.3,24.2-115.8-51.7-114.3-66.4c0.2-1.6,0.3-3.2,0.5-4.9c2-20.5,4-40.6,4.1-53.8
			c0.1-11.4,1.7-23,3.8-33.6c1.9-9.8,4.3-18.6,6.3-25.5c1.4-4.9,4.1-9.1,7.7-12.5c2.5-2.4,5.5-4.3,8.8-5.6c0.9-0.4,1.8-0.7,2.7-1
			c13.3-3.9,31.7-8.6,36.7-7.2c13.5,4,23.6,27.8,30.7,58.1C1226.8,1232.9,1229.9,1312.6,1226.4,1328.4z"/>
		<path class="st45" d="M1174,1092.8c-4.8,9.2-22.6,17.1-30.1,20c0.1-0.5,0.2-0.9,0.2-1.4c1.2-6.8,2.2-12.7,2.2-12.7l21.8-10.9
			C1173,1087.8,1176,1089,1174,1092.8z"/>
		<path class="st24" d="M1135.8,1097.4c0,0,39.4,12.3,46.6-12.3c7.3-24.6,17.2-39.6-7.6-48.5s-32.5-0.9-36.9,6.7
			S1125.7,1093.6,1135.8,1097.4z"/>
		<path class="st39" d="M1139.5,1040.9c0,0,2.5,28.7,8.4,27.4c5.9-1.2,11.3-2.2,10.4,6.5s-9.1,18.6,9.2,20.1
			c18.3,1.5,44.5-45.6,39.5-54.5C1192.5,1014.7,1118.5,1009.5,1139.5,1040.9z"/>
		<path class="st30" d="M1115.5,1318.2c10.9,3.9-0.2-10.9,0-14c0.8-13.6-4.5-30.8-2.8-47.1l66.8-39.9
			C1179.4,1217.1,1195.3,1317.5,1115.5,1318.2z"/>
		<path class="st12" d="M1226.4,1328.4c-28.5,52.9-33.1,73.1-33.1,73.1c-24.8-2.8-67.4-51.6-80.9-64.7c0,0-1.8-60.1-0.4-74.8
			l20.6-0.6c0,0,37.3,9.4,46.9-3.4s5.5-75.8,5.5-75.8l28.3-6.1C1226.8,1232.9,1234.1,1314.2,1226.4,1328.4z"/>
		<path class="st24" d="M1063.7,1227.2c0,0-8.2-1.6-10.3-3.3c-3.1-2.6-5.6-6.9-7.1-7.4c-2.6-0.8-8.9-8.8-9.4-9.3
			c-0.2-0.2-1.9,0.6-1.5,1.9c0.4,1.3,1.4,4.2,1.7,5.2c1.5,4.5,1.4,5.9-4,4.2c-0.7-0.2-13.2-4.2-14.5-1.4s3.9,16.5,10.4,19.4
			c6.5,2.9,22.6,0.3,23.8,0.6C1062.6,1240,1063.7,1227.2,1063.7,1227.2z"/>
		<path class="st8" d="M1057.1,1224.6c0,0,66.3,11.3,72.1,8.4c9.4-4.6-3.6-71.8-3.6-71.8s-0.6-15.2,17.2-18.8
			c15.5-3.1,30.4,8.5,30.4,8.5s13.6,12.1,11.8,25.6c-3.8,29.9-9.8,90.6-29.8,99.9c-25.8,12-100.3-33.3-100.3-33.3s-2.5-3-2.1-8.7
			C1053.1,1229.4,1057.1,1224.6,1057.1,1224.6z"/>
		<path class="st12" d="M1190.7,1181l-5.5,1.2c0,0-11.6-50.2-50.6-50.5c2.5-2.4,5.5-4.3,8.8-5.6
			C1157.7,1130,1182.5,1142.2,1190.7,1181z"/>
		<path class="st24" d="M999.5,1106.5c0,0-10.7-6.6-11.2-3.8c-0.2,1.4,4.5,5.3,6.5,6.9s6.8,4.9,6.8,4.9L999.5,1106.5z"/>
	</g>
	<path class="st46" d="M3039.7,1682.1H151.4c-2.1,0-3.9-1.7-3.9-3.9v-2.9c0-2.1,1.7-3.9,3.9-3.9h2888.4c2.1,0,3.9,1.7,3.9,3.9v2.9
		C3043.6,1680.3,3041.9,1682.1,3039.7,1682.1z"/>
</g>
</svg>
